<svg viewBox="0 0 1100 552" xmlns="http://www.w3.org/2000/svg" aria-hidden="true">
            <defs>
              <filter id="glo">
                <feGaussianBlur stdDeviation="14" result="b" />
                <feMerge>
                  <feMergeNode in="b" />
                  <feMergeNode in="SourceGraphic" />
                </feMerge>
              </filter>
              <filter id="gls">
                <feGaussianBlur stdDeviation="2.5" result="b" />
                <feMerge>
                  <feMergeNode in="b" />
                  <feMergeNode in="SourceGraphic" />
                </feMerge>
              </filter>
              <linearGradient id="cg" x1="0%" y1="0%" x2="0%" y2="100%">
                <stop offset="0%" stop-color="#0d1e3a" />
                <stop offset="100%" stop-color="#070f22" />
              </linearGradient>
              <linearGradient id="prog" x1="0%" y1="0%" x2="100%" y2="0%">
                <stop offset="0%" stop-color="#4d8bff" />
                <stop offset="100%" stop-color="#2a60e0" />
              </linearGradient>
            </defs>

            <rect width="1100" height="552" fill="#050c1a" />
            <g fill="rgba(77,139,255,0.05)">
              <circle cx="92" cy="92" r="1.2" /><circle cx="184" cy="92" r="1.2" /><circle cx="276" cy="92" r="1.2" /><circle cx="368" cy="92" r="1.2" /><circle cx="460" cy="92" r="1.2" /><circle cx="552" cy="92" r="1.2" /><circle cx="644" cy="92" r="1.2" /><circle cx="736" cy="92" r="1.2" /><circle cx="828" cy="92" r="1.2" /><circle cx="920" cy="92" r="1.2" /><circle cx="1012" cy="92" r="1.2" />
              <circle cx="92" cy="184" r="1.2" /><circle cx="184" cy="184" r="1.2" /><circle cx="276" cy="184" r="1.2" /><circle cx="368" cy="184" r="1.2" /><circle cx="460" cy="184" r="1.2" /><circle cx="552" cy="184" r="1.2" /><circle cx="644" cy="184" r="1.2" /><circle cx="736" cy="184" r="1.2" /><circle cx="828" cy="184" r="1.2" /><circle cx="920" cy="184" r="1.2" /><circle cx="1012" cy="184" r="1.2" />
              <circle cx="92" cy="276" r="1.2" /><circle cx="184" cy="276" r="1.2" /><circle cx="276" cy="276" r="1.2" /><circle cx="368" cy="276" r="1.2" /><circle cx="460" cy="276" r="1.2" /><circle cx="644" cy="276" r="1.2" /><circle cx="736" cy="276" r="1.2" /><circle cx="828" cy="276" r="1.2" /><circle cx="920" cy="276" r="1.2" /><circle cx="1012" cy="276" r="1.2" />
              <circle cx="92" cy="368" r="1.2" /><circle cx="184" cy="368" r="1.2" /><circle cx="276" cy="368" r="1.2" /><circle cx="368" cy="368" r="1.2" /><circle cx="460" cy="368" r="1.2" /><circle cx="552" cy="368" r="1.2" /><circle cx="644" cy="368" r="1.2" /><circle cx="736" cy="368" r="1.2" /><circle cx="828" cy="368" r="1.2" /><circle cx="920" cy="368" r="1.2" /><circle cx="1012" cy="368" r="1.2" />
              <circle cx="92" cy="460" r="1.2" /><circle cx="184" cy="460" r="1.2" /><circle cx="276" cy="460" r="1.2" /><circle cx="368" cy="460" r="1.2" /><circle cx="460" cy="460" r="1.2" /><circle cx="552" cy="460" r="1.2" /><circle cx="644" cy="460" r="1.2" /><circle cx="736" cy="460" r="1.2" /><circle cx="828" cy="460" r="1.2" /><circle cx="920" cy="460" r="1.2" /><circle cx="1012" cy="460" r="1.2" />
            </g>
            <ellipse cx="550" cy="276" rx="440" ry="240" fill="rgba(77,139,255,0.04)" filter="url(#glo)" />

            <rect x="40" y="40" width="1020" height="148" rx="12" fill="rgba(7,14,30,0.95)" stroke="rgba(77,139,255,0.13)" stroke-width="1" />
            <rect x="40" y="40" width="1020" height="4" rx="2" fill="#4d8bff" />
            <text x="60" y="64" font-family="Helvetica Neue,Helvetica,Arial,sans-serif" font-size="10" font-weight="600" fill="#2a4a7a" letter-spacing="1.5">ANNUAL MAINTENANCE CONTRACT - 12-MONTH SCHEDULE</text>

            <g font-family="Helvetica Neue,Helvetica,Arial,sans-serif">
              <text x="99" y="86" text-anchor="middle" font-size="9" fill="#4a6a82">JAN</text>
              <text x="184" y="86" text-anchor="middle" font-size="9" fill="#4a6a82">FEB</text>
              <text x="269" y="86" text-anchor="middle" font-size="9" fill="#4a6a82">MAR</text>
              <text x="354" y="86" text-anchor="middle" font-size="9" fill="#4a6a82">APR</text>
              <text x="439" y="86" text-anchor="middle" font-size="9" fill="#4a6a82">MAY</text>
              <text x="524" y="86" text-anchor="middle" font-size="9" fill="#4a6a82">JUN</text>
              <text x="609" y="86" text-anchor="middle" font-size="9" fill="#4a6a82">JUL</text>
              <text x="694" y="86" text-anchor="middle" font-size="9" fill="#4a6a82">AUG</text>
              <text x="779" y="86" text-anchor="middle" font-size="9" fill="#4a6a82">SEP</text>
              <text x="864" y="86" text-anchor="middle" font-size="9" fill="#4a6a82">OCT</text>
              <text x="949" y="86" text-anchor="middle" font-size="9" fill="#4a6a82">NOV</text>
              <text x="1017" y="86" text-anchor="middle" font-size="9" fill="#4a6a82">DEC</text>

              <rect x="57" y="96" width="158" height="16" rx="3" fill="rgba(77,139,255,0.25)" stroke="rgba(77,139,255,0.4)" stroke-width="0.8" />
              <text x="136" y="108" text-anchor="middle" font-size="8" font-weight="600" fill="#4d8bff">Q1 Preventive Maintenance</text>
              <rect x="312" y="96" width="158" height="16" rx="3" fill="rgba(77,139,255,0.25)" stroke="rgba(77,139,255,0.4)" stroke-width="0.8" />
              <text x="391" y="108" text-anchor="middle" font-size="8" font-weight="600" fill="#4d8bff">Q2 Preventive Maintenance</text>
              <rect x="567" y="96" width="158" height="16" rx="3" fill="rgba(77,139,255,0.25)" stroke="rgba(77,139,255,0.4)" stroke-width="0.8" />
              <text x="646" y="108" text-anchor="middle" font-size="8" font-weight="600" fill="#4d8bff">Q3 Preventive Maintenance</text>
              <rect x="822" y="96" width="220" height="16" rx="3" fill="rgba(77,139,255,0.25)" stroke="rgba(77,139,255,0.4)" stroke-width="0.8" />
              <text x="932" y="108" text-anchor="middle" font-size="8" font-weight="600" fill="#4d8bff">Q4 Maintenance + Review</text>

              <rect x="57" y="118" width="74" height="12" rx="3" fill="rgba(106,143,168,0.2)" stroke="rgba(106,143,168,0.3)" stroke-width="0.8" />
              <text x="94" y="128" text-anchor="middle" font-size="7.5" fill="#6a8fa8">Firmware</text>
              <rect x="227" y="118" width="74" height="12" rx="3" fill="rgba(106,143,168,0.2)" stroke="rgba(106,143,168,0.3)" stroke-width="0.8" />
              <text x="264" y="128" text-anchor="middle" font-size="7.5" fill="#6a8fa8">Firmware</text>
              <rect x="482" y="118" width="74" height="12" rx="3" fill="rgba(106,143,168,0.2)" stroke="rgba(106,143,168,0.3)" stroke-width="0.8" />
              <text x="519" y="128" text-anchor="middle" font-size="7.5" fill="#6a8fa8">Firmware</text>
              <rect x="737" y="118" width="74" height="12" rx="3" fill="rgba(106,143,168,0.2)" stroke="rgba(106,143,168,0.3)" stroke-width="0.8" />
              <text x="774" y="128" text-anchor="middle" font-size="7.5" fill="#6a8fa8">Firmware</text>

              <rect x="57" y="136" width="56" height="10" rx="3" fill="rgba(60,179,113,0.15)" stroke="rgba(60,179,113,0.3)" stroke-width="0.8" />
              <text x="85" y="144" text-anchor="middle" font-size="7" fill="#3cb371">MIS Rpt</text>
              <rect x="142" y="136" width="56" height="10" rx="3" fill="rgba(60,179,113,0.15)" stroke="rgba(60,179,113,0.3)" stroke-width="0.8" />
              <text x="170" y="144" text-anchor="middle" font-size="7" fill="#3cb371">MIS Rpt</text>
              <rect x="227" y="136" width="56" height="10" rx="3" fill="rgba(60,179,113,0.15)" stroke="rgba(60,179,113,0.3)" stroke-width="0.8" />
              <text x="255" y="144" text-anchor="middle" font-size="7" fill="#3cb371">MIS Rpt</text>
              <rect x="312" y="136" width="56" height="10" rx="3" fill="rgba(60,179,113,0.15)" stroke="rgba(60,179,113,0.3)" stroke-width="0.8" />
              <text x="340" y="144" text-anchor="middle" font-size="7" fill="#3cb371">MIS Rpt</text>
              <rect x="397" y="136" width="56" height="10" rx="3" fill="rgba(60,179,113,0.15)" stroke="rgba(60,179,113,0.3)" stroke-width="0.8" />
              <text x="425" y="144" text-anchor="middle" font-size="7" fill="#3cb371">MIS Rpt</text>
              <rect x="482" y="136" width="56" height="10" rx="3" fill="rgba(60,179,113,0.15)" stroke="rgba(60,179,113,0.3)" stroke-width="0.8" />
              <text x="510" y="144" text-anchor="middle" font-size="7" fill="#3cb371">MIS Rpt</text>
              <rect x="567" y="136" width="56" height="10" rx="3" fill="rgba(60,179,113,0.15)" stroke="rgba(60,179,113,0.3)" stroke-width="0.8" />
              <text x="595" y="144" text-anchor="middle" font-size="7" fill="#3cb371">MIS Rpt</text>
              <rect x="652" y="136" width="56" height="10" rx="3" fill="rgba(60,179,113,0.15)" stroke="rgba(60,179,113,0.3)" stroke-width="0.8" />
              <text x="680" y="144" text-anchor="middle" font-size="7" fill="#3cb371">MIS Rpt</text>
              <rect x="737" y="136" width="56" height="10" rx="3" fill="rgba(60,179,113,0.15)" stroke="rgba(60,179,113,0.3)" stroke-width="0.8" />
              <text x="765" y="144" text-anchor="middle" font-size="7" fill="#3cb371">MIS Rpt</text>
              <rect x="822" y="136" width="56" height="10" rx="3" fill="rgba(60,179,113,0.15)" stroke="rgba(60,179,113,0.3)" stroke-width="0.8" />
              <text x="850" y="144" text-anchor="middle" font-size="7" fill="#3cb371">MIS Rpt</text>
              <rect x="907" y="136" width="56" height="10" rx="3" fill="rgba(60,179,113,0.15)" stroke="rgba(60,179,113,0.3)" stroke-width="0.8" />
              <text x="935" y="144" text-anchor="middle" font-size="7" fill="#3cb371">MIS Rpt</text>
              <rect x="990" y="136" width="56" height="10" rx="3" fill="rgba(60,179,113,0.15)" stroke="rgba(60,179,113,0.3)" stroke-width="0.8" />
              <text x="1018" y="144" text-anchor="middle" font-size="7" fill="#3cb371">Annual Rev</text>

              <line x1="439" y1="92" x2="439" y2="188" stroke="#4d8bff" stroke-width="1.5" stroke-dasharray="3 3" opacity="0.6" />
              <rect x="420" y="78" width="38" height="14" rx="3" fill="#4d8bff" />
              <text x="439" y="89" text-anchor="middle" font-size="8" font-weight="700" fill="#fff">TODAY</text>
            </g>

            <g>
              <rect x="40" y="204" width="334" height="298" rx="12" fill="rgba(7,14,30,0.95)" stroke="rgba(77,139,255,0.16)" stroke-width="1" />
              <rect x="40" y="204" width="334" height="4" rx="2" fill="#4d8bff" />
              <text x="60" y="228" font-family="Helvetica Neue,Helvetica,Arial,sans-serif" font-size="10" font-weight="600" fill="#2a4a7a" letter-spacing="1.5">WHAT'S COVERED</text>
              <g font-family="Helvetica Neue,Helvetica,Arial,sans-serif" font-size="11">
                <circle cx="60" cy="252" r="3.5" fill="#4d8bff" />
                <text x="74" y="256" fill="#e9f0fa">Routers, Switches, Firewalls</text>
                <circle cx="60" cy="276" r="3.5" fill="#4d8bff" />
                <text x="74" y="280" fill="#e9f0fa">Servers &amp; Storage arrays</text>
                <circle cx="60" cy="300" r="3.5" fill="#4d8bff" />
                <text x="74" y="304" fill="#e9f0fa">UPS &amp; Power infrastructure</text>
                <circle cx="60" cy="324" r="3.5" fill="#6a8fa8" />
                <text x="74" y="328" fill="#e9f0fa">Wireless &amp; Access points</text>
                <circle cx="60" cy="348" r="3.5" fill="#6a8fa8" />
                <text x="74" y="352" fill="#e9f0fa">CCTV &amp; Surveillance</text>
                <circle cx="60" cy="372" r="3.5" fill="#6a8fa8" />
                <text x="74" y="376" fill="#e9f0fa">Structured cabling</text>
                <circle cx="60" cy="396" r="3.5" fill="#4d8bff" />
                <text x="74" y="400" fill="#e9f0fa">Quarterly preventive maintenance</text>
                <circle cx="60" cy="420" r="3.5" fill="#4d8bff" />
                <text x="74" y="424" fill="#e9f0fa">Firmware &amp; patch updates</text>
                <circle cx="60" cy="444" r="3.5" fill="#3cb371" />
                <text x="74" y="448" fill="#e9f0fa">Monthly MIS reports</text>
                <circle cx="60" cy="468" r="3.5" fill="#3cb371" />
                <text x="74" y="472" fill="#e9f0fa">Spare parts &amp; replacement</text>
              </g>

              <rect x="384" y="204" width="334" height="298" rx="12" fill="rgba(7,14,30,0.95)" stroke="rgba(77,139,255,0.14)" stroke-width="1" />
              <rect x="384" y="204" width="334" height="4" rx="2" fill="#6a8fa8" />
              <text x="404" y="228" font-family="Helvetica Neue,Helvetica,Arial,sans-serif" font-size="10" font-weight="600" fill="#2a4a7a" letter-spacing="1.5">AMC PROCESS</text>
              <line x1="414" y1="240" x2="414" y2="480" stroke="rgba(77,139,255,0.1)" stroke-width="1" stroke-dasharray="3 4" />
              <g font-family="Helvetica Neue,Helvetica,Arial,sans-serif">
                <circle cx="414" cy="252" r="9" fill="#4d8bff" filter="url(#gls)" />
                <text x="414" y="256" text-anchor="middle" font-size="8" font-weight="700" fill="#fff">1</text>
                <text x="432" y="248" font-size="13" font-weight="700" fill="#e9f0fa">Asset Inventory</text>
                <text x="432" y="262" font-size="10" fill="#4a6a82">Document all devices &amp; warranties</text>
                <circle cx="414" cy="300" r="9" fill="#4d8bff" filter="url(#gls)" />
                <text x="414" y="304" text-anchor="middle" font-size="8" font-weight="700" fill="#fff">2</text>
                <text x="432" y="296" font-size="13" font-weight="700" fill="#e9f0fa">Contract Signing</text>
                <text x="432" y="310" font-size="10" fill="#4a6a82">SLA terms, coverage, escalation</text>
                <circle cx="414" cy="348" r="9" fill="#4d8bff" filter="url(#gls)" />
                <text x="414" y="352" text-anchor="middle" font-size="8" font-weight="700" fill="#fff">3</text>
                <text x="432" y="344" font-size="13" font-weight="700" fill="#e9f0fa">Scheduled Visits</text>
                <text x="432" y="358" font-size="10" fill="#4a6a82">Quarterly on-site preventive checks</text>
                <circle cx="414" cy="396" r="9" fill="#6a8fa8" filter="url(#gls)" />
                <text x="414" y="400" text-anchor="middle" font-size="8" font-weight="700" fill="#fff">4</text>
                <text x="432" y="392" font-size="13" font-weight="700" fill="#e9f0fa">Break-Fix Support</text>
                <text x="432" y="406" font-size="10" fill="#4a6a82">On-call dispatch within SLA window</text>
                <circle cx="414" y="444" r="9" fill="#6a8fa8" filter="url(#gls)" />
                <text x="414" y="448" text-anchor="middle" font-size="8" font-weight="700" fill="#fff">5</text>
                <text x="432" y="440" font-size="13" font-weight="700" fill="#e9f0fa">Monthly Reporting</text>
                <text x="432" y="454" font-size="10" fill="#4a6a82">MIS + uptime + incident summary</text>
                <circle cx="414" y="480" r="9" fill="#6a8fa8" filter="url(#gls)" />
                <text x="414" y="484" text-anchor="middle" font-size="8" font-weight="700" fill="#fff">6</text>
                <text x="432" y="476" font-size="13" font-weight="700" fill="#e9f0fa">Annual Review</text>
                <text x="432" y="490" font-size="10" fill="#4a6a82">Renewal, upgrades, asset refresh</text>
              </g>

              <rect x="728" y="204" width="334" height="298" rx="12" fill="rgba(7,14,30,0.95)" stroke="rgba(77,139,255,0.14)" stroke-width="1" />
              <rect x="728" y="204" width="334" height="4" rx="2" fill="#4d8bff" />
              <text x="748" y="228" font-family="Helvetica Neue,Helvetica,Arial,sans-serif" font-size="10" font-weight="600" fill="#2a4a7a" letter-spacing="1.5">SLA COMMITMENTS</text>
              <g font-family="Helvetica Neue,Helvetica,Arial,sans-serif">
                <text x="748" y="258" font-size="12" font-weight="700" fill="#e9f0fa">Response Time</text>
                <rect x="748" y="264" width="294" height="6" rx="3" fill="rgba(77,139,255,0.08)" />
                <rect x="748" y="264" width="260" height="6" rx="3" fill="url(#prog)">
                  <animate attributeName="width" from="0" to="260" dur="1.4s" fill="freeze" />
                </rect>
                <text x="748" y="282" font-size="10" fill="#4a6a82">&lt; 4 hours on-site · NBD for non-critical</text>

                <text x="748" y="308" font-size="12" font-weight="700" fill="#e9f0fa">Uptime Guarantee</text>
                <rect x="748" y="314" width="294" height="6" rx="3" fill="rgba(77,139,255,0.08)" />
                <rect x="748" y="314" width="285" height="6" rx="3" fill="url(#prog)">
                  <animate attributeName="width" from="0" to="285" dur="1.6s" fill="freeze" />
                </rect>
                <text x="748" y="332" font-size="10" fill="#4a6a82">99.9% network availability per contract</text>

                <text x="748" y="358" font-size="12" font-weight="700" fill="#e9f0fa">Preventive Visits</text>
                <rect x="748" y="364" width="294" height="6" rx="3" fill="rgba(77,139,255,0.08)" />
                <rect x="748" y="364" width="220" height="6" rx="3" fill="url(#prog)">
                  <animate attributeName="width" from="0" to="220" dur="1.2s" fill="freeze" />
                </rect>
                <text x="748" y="382" font-size="10" fill="#4a6a82">4 scheduled site visits per year (Q-wise)</text>

                <text x="748" y="408" font-size="12" font-weight="700" fill="#e9f0fa">Spare Parts</text>
                <rect x="748" y="414" width="294" height="6" rx="3" fill="rgba(77,139,255,0.08)" />
                <rect x="748" y="414" width="240" height="6" rx="3" fill="url(#prog)">
                  <animate attributeName="width" from="0" to="240" dur="1.3s" fill="freeze" />
                </rect>
                <text x="748" y="432" font-size="10" fill="#4a6a82">OEM-certified replacements included</text>

                <line x1="748" y1="448" x2="1048" y2="448" stroke="rgba(77,139,255,0.1)" stroke-width="0.8" />
                <text x="748" y="466" font-size="10" fill="#4a6a82">Coverage:</text>
                <rect x="810" y="454" width="56" height="18" rx="4" fill="rgba(77,139,255,0.1)" stroke="rgba(77,139,255,0.2)" stroke-width="0.8" />
                <text x="838" y="467" text-anchor="middle" font-size="9" font-weight="600" fill="#4d8bff">Network</text>
                <rect x="876" y="454" width="56" height="18" rx="4" fill="rgba(77,139,255,0.1)" stroke="rgba(77,139,255,0.2)" stroke-width="0.8" />
                <text x="904" y="467" text-anchor="middle" font-size="9" font-weight="600" fill="#4d8bff">Servers</text>
                <rect x="942" y="454" width="56" height="18" rx="4" fill="rgba(77,139,255,0.1)" stroke="rgba(77,139,255,0.2)" stroke-width="0.8" />
                <text x="970" y="467" text-anchor="middle" font-size="9" font-weight="600" fill="#4d8bff">Security</text>

                <text x="748" y="490" font-size="11" font-weight="600" fill="#e9f0fa">Vendors: </text>
                <text x="820" y="490" font-size="11" fill="#4a6a82">Cisco · Juniper · Dell · HPE · Fortinet · Aruba</text>
              </g>
            </g>

            <rect x="0" y="522" width="1100" height="30" fill="rgba(5,12,26,0.98)" />
            <line x1="0" y1="522" x2="1100" y2="522" stroke="rgba(77,139,255,0.12)" stroke-width="0.8" />
            <circle cx="32" cy="537" r="4" fill="#4d8bff" filter="url(#gls)"><animate attributeName="opacity" values="1;0.3;1" dur="1.4s" repeatCount="indefinite" /></circle>
            <text x="44" y="541" font-family="Helvetica Neue,Helvetica,Arial,sans-serif" font-size="10" font-weight="600" fill="#4d8bff">AMC Active</text>
            <text x="160" y="541" font-family="Helvetica Neue,Helvetica,Arial,sans-serif" font-size="10" fill="#1e3560">Quarterly visits · Monthly MIS · 4-hr response · Spare parts included · OEM-certified · 24/7</text>
          </svg>
