<svg viewBox="0 0 1100 552" xmlns="http://www.w3.org/2000/svg" aria-hidden="true">
            <defs>
              <filter id="glow">
                <feGaussianBlur stdDeviation="14" result="b" />
                <feMerge>
                  <feMergeNode in="b" />
                  <feMergeNode in="SourceGraphic" />
                </feMerge>
              </filter>
              <filter id="glow2">
                <feGaussianBlur stdDeviation="6" result="b" />
                <feMerge>
                  <feMergeNode in="b" />
                  <feMergeNode in="SourceGraphic" />
                </feMerge>
              </filter>
              <filter id="glow3">
                <feGaussianBlur stdDeviation="2.5" result="b" />
                <feMerge>
                  <feMergeNode in="b" />
                  <feMergeNode in="SourceGraphic" />
                </feMerge>
              </filter>
              <radialGradient id="rg1" cx="50%" cy="50%" r="50%">
                <stop offset="0%" stop-color="#1a3a80" />
                <stop offset="100%" stop-color="#050c1a" />
              </radialGradient>
              <linearGradient id="cardBg" x1="0%" y1="0%" x2="0%" y2="100%">
                <stop offset="0%" stop-color="#0d1e3a" />
                <stop offset="100%" stop-color="#070f22" />
              </linearGradient>

              <path id="q1" d="M550,276 C480,220 360,170 220,130" />
              <path id="q2" d="M550,276 C560,190 590,140 780,100" />
              <path id="q3" d="M550,276 C660,220 820,200 920,150" />
              <path id="q4" d="M550,276 C480,340 360,380 220,420" />
              <path id="q5" d="M550,276 C560,360 590,400 780,440" />
              <path id="q6" d="M550,276 C660,340 820,360 920,410" />
            </defs>

            <rect width="1100" height="552" fill="#050c1a" />
            <ellipse cx="550" cy="276" rx="380" ry="260" fill="url(#rg1)" opacity="0.7" />

            <g fill="rgba(77,139,255,0.07)">
              <circle cx="92" cy="92" r="1.2" /><circle cx="184" cy="92" r="1.2" /><circle cx="276" cy="92" r="1.2" /><circle cx="368" cy="92" r="1.2" /><circle cx="460" cy="92" r="1.2" /><circle cx="552" cy="92" r="1.2" /><circle cx="644" cy="92" r="1.2" /><circle cx="736" cy="92" r="1.2" /><circle cx="828" cy="92" r="1.2" /><circle cx="920" cy="92" r="1.2" /><circle cx="1012" cy="92" r="1.2" />
              <circle cx="92" cy="184" r="1.2" /><circle cx="184" cy="184" r="1.2" /><circle cx="276" cy="184" r="1.2" /><circle cx="368" cy="184" r="1.2" /><circle cx="460" cy="184" r="1.2" /><circle cx="552" cy="184" r="1.2" /><circle cx="644" cy="184" r="1.2" /><circle cx="736" cy="184" r="1.2" /><circle cx="828" cy="184" r="1.2" /><circle cx="920" cy="184" r="1.2" /><circle cx="1012" cy="184" r="1.2" />
              <circle cx="92" cy="276" r="1.2" /><circle cx="184" cy="276" r="1.2" /><circle cx="276" cy="276" r="1.2" /><circle cx="368" cy="276" r="1.2" /><circle cx="460" cy="276" r="1.2" /><circle cx="644" cy="276" r="1.2" /><circle cx="736" cy="276" r="1.2" /><circle cx="828" cy="276" r="1.2" /><circle cx="920" cy="276" r="1.2" /><circle cx="1012" cy="276" r="1.2" />
              <circle cx="92" cy="368" r="1.2" /><circle cx="184" cy="368" r="1.2" /><circle cx="276" cy="368" r="1.2" /><circle cx="368" cy="368" r="1.2" /><circle cx="460" cy="368" r="1.2" /><circle cx="552" cy="368" r="1.2" /><circle cx="644" cy="368" r="1.2" /><circle cx="736" cy="368" r="1.2" /><circle cx="828" cy="368" r="1.2" /><circle cx="920" cy="368" r="1.2" /><circle cx="1012" cy="368" r="1.2" />
              <circle cx="92" cy="460" r="1.2" /><circle cx="184" cy="460" r="1.2" /><circle cx="276" cy="460" r="1.2" /><circle cx="368" cy="460" r="1.2" /><circle cx="460" cy="460" r="1.2" /><circle cx="552" cy="460" r="1.2" /><circle cx="644" cy="460" r="1.2" /><circle cx="736" cy="460" r="1.2" /><circle cx="828" cy="460" r="1.2" /><circle cx="920" cy="460" r="1.2" /><circle cx="1012" cy="460" r="1.2" />
            </g>

            <circle cx="550" cy="276" r="130" fill="none" stroke="rgba(77,139,255,0.06)" stroke-width="1">
              <animate attributeName="r" values="130;150;130" dur="5s" repeatCount="indefinite" />
              <animate attributeName="opacity" values="0.4;0.1;0.4" dur="5s" repeatCount="indefinite" />
            </circle>
            <circle cx="550" cy="276" r="220" fill="none" stroke="rgba(77,139,255,0.04)" stroke-width="1">
              <animate attributeName="r" values="220;240;220" dur="6s" repeatCount="indefinite" begin="-2s" />
              <animate attributeName="opacity" values="0.3;0.05;0.3" dur="6s" repeatCount="indefinite" begin="-2s" />
            </circle>

            <path d="M550,276 C480,220 360,170 220,130" fill="none" stroke="rgba(77,139,255,0.2)" stroke-width="1.2" />
            <path d="M550,276 C560,190 590,140 780,100" fill="none" stroke="rgba(77,139,255,0.2)" stroke-width="1.2" />
            <path d="M550,276 C660,220 820,200 920,150" fill="none" stroke="rgba(77,139,255,0.16)" stroke-width="1.2" />
            <path d="M550,276 C480,340 360,380 220,420" fill="none" stroke="rgba(106,143,168,0.2)" stroke-width="1.2" />
            <path d="M550,276 C560,360 590,400 780,440" fill="none" stroke="rgba(106,143,168,0.2)" stroke-width="1.2" />
            <path d="M550,276 C660,340 820,360 920,410" fill="none" stroke="rgba(106,143,168,0.16)" stroke-width="1.2" />

            <circle r="4.5" fill="#4d8bff" filter="url(#glow3)">
              <animateMotion dur="1.4s" repeatCount="indefinite" begin="0s"><mpath href="#q1" /></animateMotion>
              <animate attributeName="opacity" values="0;1;1;0" dur="1.4s" repeatCount="indefinite" />
            </circle>
            <circle r="3" fill="#4d8bff" filter="url(#glow3)">
              <animateMotion dur="1.4s" repeatCount="indefinite" begin="-0.7s"><mpath href="#q1" /></animateMotion>
              <animate attributeName="opacity" values="0;1;1;0" dur="1.4s" repeatCount="indefinite" begin="-0.7s" />
            </circle>
            <circle r="4.5" fill="#4d8bff" filter="url(#glow3)">
              <animateMotion dur="1.6s" repeatCount="indefinite" begin="-0.3s"><mpath href="#q2" /></animateMotion>
              <animate attributeName="opacity" values="0;1;1;0" dur="1.6s" repeatCount="indefinite" begin="-0.3s" />
            </circle>
            <circle r="3" fill="#4d8bff" filter="url(#glow3)">
              <animateMotion dur="1.6s" repeatCount="indefinite" begin="-1.1s"><mpath href="#q2" /></animateMotion>
              <animate attributeName="opacity" values="0;1;1;0" dur="1.6s" repeatCount="indefinite" begin="-1.1s" />
            </circle>
            <circle r="4.5" fill="#4d8bff" filter="url(#glow3)">
              <animateMotion dur="1.5s" repeatCount="indefinite" begin="-0.6s"><mpath href="#q3" /></animateMotion>
              <animate attributeName="opacity" values="0;1;1;0" dur="1.5s" repeatCount="indefinite" begin="-0.6s" />
            </circle>
            <circle r="4" fill="#6a8fa8" filter="url(#glow3)">
              <animateMotion dur="1.7s" repeatCount="indefinite" begin="-0.2s"><mpath href="#q4" /></animateMotion>
              <animate attributeName="opacity" values="0;1;1;0" dur="1.7s" repeatCount="indefinite" begin="-0.2s" />
            </circle>
            <circle r="3" fill="#6a8fa8" filter="url(#glow3)">
              <animateMotion dur="1.7s" repeatCount="indefinite" begin="-1s"><mpath href="#q4" /></animateMotion>
              <animate attributeName="opacity" values="0;1;1;0" dur="1.7s" repeatCount="indefinite" begin="-1s" />
            </circle>
            <circle r="4" fill="#6a8fa8" filter="url(#glow3)">
              <animateMotion dur="1.5s" repeatCount="indefinite" begin="-0.5s"><mpath href="#q5" /></animateMotion>
              <animate attributeName="opacity" values="0;1;1;0" dur="1.5s" repeatCount="indefinite" begin="-0.5s" />
            </circle>
            <circle r="4" fill="#6a8fa8" filter="url(#glow3)">
              <animateMotion dur="1.8s" repeatCount="indefinite" begin="-0.9s"><mpath href="#q6" /></animateMotion>
              <animate attributeName="opacity" values="0;1;1;0" dur="1.8s" repeatCount="indefinite" begin="-0.9s" />
            </circle>

            <circle cx="550" cy="276" r="72" fill="rgba(8,18,42,0.98)" stroke="#4d8bff" stroke-width="1.8" filter="url(#glow2)" />
            <circle cx="550" cy="276" r="55" fill="rgba(20,50,110,0.35)" stroke="rgba(77,139,255,0.25)" stroke-width="1" />
            <rect x="524" y="256" width="52" height="11" rx="2.5" fill="none" stroke="#4d8bff" stroke-width="1.4" />
            <rect x="524" y="271" width="52" height="11" rx="2.5" fill="none" stroke="#4d8bff" stroke-width="1.4" opacity="0.7" />
            <rect x="524" y="286" width="52" height="11" rx="2.5" fill="none" stroke="#4d8bff" stroke-width="1.4" opacity="0.4" />
            <circle cx="531" cy="262" r="2.2" fill="#4d8bff">
              <animate attributeName="opacity" values="1;0.15;1" dur="0.9s" repeatCount="indefinite" />
            </circle>
            <circle cx="531" cy="277" r="2.2" fill="#4d8bff">
              <animate attributeName="opacity" values="1;0.15;1" dur="1.1s" repeatCount="indefinite" begin="-0.3s" />
            </circle>
            <circle cx="531" cy="292" r="2.2" fill="#3cb371">
              <animate attributeName="opacity" values="1;0.15;1" dur="0.8s" repeatCount="indefinite" begin="-0.6s" />
            </circle>
            <circle cx="550" cy="276" r="80" fill="none" stroke="rgba(77,139,255,0.12)" stroke-width="1" stroke-dasharray="8 6">
              <animateTransform attributeName="transform" type="rotate" from="0 550 276" to="360 550 276" dur="12s" repeatCount="indefinite" />
            </circle>

            <rect x="80" y="68" width="200" height="118" rx="9" fill="url(#cardBg)" stroke="rgba(77,139,255,0.3)" stroke-width="1" />
            <rect x="80" y="68" width="200" height="3.5" rx="2" fill="#4d8bff" />
            <rect x="80" y="68" width="200" height="118" rx="9" fill="rgba(77,139,255,0.025)" />
            <path d="M90 100 h20 v16 h30" fill="none" stroke="rgba(77,139,255,0.2)" stroke-width="0.8" />
            <path d="M90 120 h15 v-10 h20" fill="none" stroke="rgba(77,139,255,0.15)" stroke-width="0.8" />
            <circle cx="108" cy="110" r="9" fill="rgba(77,139,255,0.15)" stroke="#4d8bff" stroke-width="1.2" />
            <circle cx="108" cy="110" r="3" fill="#4d8bff" />
            <circle cx="122" cy="100" r="4" fill="none" stroke="#4d8bff" stroke-width="1" opacity="0.6" />
            <circle cx="122" cy="120" r="4" fill="none" stroke="#4d8bff" stroke-width="1" opacity="0.5" />
            <line x1="112" y1="107" x2="119" y2="102" stroke="#4d8bff" stroke-width="0.9" opacity="0.6" />
            <line x1="112" y1="113" x2="119" y2="118" stroke="#4d8bff" stroke-width="0.9" opacity="0.5" />
            <text x="140" y="103" font-family="Helvetica Neue,Helvetica,Arial,sans-serif" font-size="15" font-weight="700" fill="#e9f0fa">Networking</text>
            <text x="140" y="118" font-family="Helvetica Neue,Helvetica,Arial,sans-serif" font-size="10" fill="#4a6a82">LAN · WAN · SD-WAN</text>
            <text x="140" y="131" font-family="Helvetica Neue,Helvetica,Arial,sans-serif" font-size="10" fill="#4a6a82">Cisco · Juniper · Aruba</text>
            <line x1="96" y1="152" x2="264" y2="152" stroke="rgba(77,139,255,0.1)" stroke-width="0.8" />
            <text x="96" y="167" font-family="Helvetica Neue,Helvetica,Arial,sans-serif" font-size="9" fill="#2a4872" letter-spacing="0.3">Design → Deploy → Optimise</text>

            <rect x="670" y="48" width="200" height="118" rx="9" fill="url(#cardBg)" stroke="rgba(77,139,255,0.3)" stroke-width="1" />
            <rect x="670" y="48" width="200" height="3.5" rx="2" fill="#4d8bff" />
            <path d="M686 96 c0-6.6 5.4-12 12-12 1.8-5.4 6.6-9 12-9 7.8 0 13.8 6.6 13.8 14.4 h2.4 c4.2 0 7.8 3.6 7.8 7.8s-3.6 7.8-7.8 7.8H686c-3.6 0-6-2.4-6-7.8z" fill="none" stroke="#4d8bff" stroke-width="1.4" />
            <line x1="706" y1="101" x2="706" y2="93" stroke="#4d8bff" stroke-width="1.2" stroke-linecap="round" />
            <path d="M703 96 l3-4 3 4" fill="none" stroke="#4d8bff" stroke-width="1.2" stroke-linecap="round" />
            <text x="726" y="85" font-family="Helvetica Neue,Helvetica,Arial,sans-serif" font-size="15" font-weight="700" fill="#e9f0fa">Cloud</text>
            <text x="726" y="100" font-family="Helvetica Neue,Helvetica,Arial,sans-serif" font-size="10" fill="#4a6a82">Azure · AWS · Hybrid</text>
            <text x="726" y="113" font-family="Helvetica Neue,Helvetica,Arial,sans-serif" font-size="10" fill="#4a6a82">Migration &amp; Mgmt</text>
            <line x1="686" y1="136" x2="854" y2="136" stroke="rgba(77,139,255,0.1)" stroke-width="0.8" />
            <text x="686" y="151" font-family="Helvetica Neue,Helvetica,Arial,sans-serif" font-size="9" fill="#2a4872" letter-spacing="0.3">Plan → Migrate → Manage</text>

            <rect x="890" y="68" width="200" height="118" rx="9" fill="url(#cardBg)" stroke="rgba(77,139,255,0.22)" stroke-width="1" />
            <rect x="890" y="68" width="200" height="3.5" rx="2" fill="#6a8fa8" />
            <path d="M908 90 l12-5 12 5 v10 c0 6 -12 12-12 12 s-12-6-12-12z" fill="rgba(106,143,168,0.15)" stroke="#6a8fa8" stroke-width="1.3" />
            <path d="M914 100 l3 3 6-6" fill="none" stroke="#6a8fa8" stroke-width="1.3" stroke-linecap="round" />
            <text x="938" y="92" font-family="Helvetica Neue,Helvetica,Arial,sans-serif" font-size="15" font-weight="700" fill="#e9f0fa">Security</text>
            <text x="938" y="108" font-family="Helvetica Neue,Helvetica,Arial,sans-serif" font-size="10" fill="#4a6a82">Firewall · VAPT</text>
            <text x="938" y="121" font-family="Helvetica Neue,Helvetica,Arial,sans-serif" font-size="10" fill="#4a6a82">Zero Trust · Fortinet</text>
            <line x1="906" y1="148" x2="1074" y2="148" stroke="rgba(106,143,168,0.1)" stroke-width="0.8" />
            <text x="906" y="163" font-family="Helvetica Neue,Helvetica,Arial,sans-serif" font-size="9" fill="#2a4872" letter-spacing="0.3">Assess → Harden → Monitor</text>

            <rect x="80" y="366" width="200" height="118" rx="9" fill="url(#cardBg)" stroke="rgba(106,143,168,0.3)" stroke-width="1" />
            <rect x="80" y="366" width="200" height="3.5" rx="2" fill="#6a8fa8" />
            <rect x="96" y="382" width="32" height="7" rx="1.5" fill="none" stroke="#6a8fa8" stroke-width="1.2" />
            <rect x="96" y="393" width="32" height="7" rx="1.5" fill="none" stroke="#6a8fa8" stroke-width="1.2" opacity="0.7" />
            <rect x="96" y="404" width="32" height="7" rx="1.5" fill="none" stroke="#6a8fa8" stroke-width="1.2" opacity="0.5" />
            <circle cx="123" cy="386" r="1.5" fill="#3cb371">
              <animate attributeName="opacity" values="1;0.2;1" dur="0.9s" repeatCount="indefinite" />
            </circle>
            <circle cx="123" cy="397" r="1.5" fill="#3cb371">
              <animate attributeName="opacity" values="1;0.2;1" dur="1.2s" repeatCount="indefinite" begin="-0.4s" />
            </circle>
            <circle cx="123" cy="408" r="1.5" fill="#4d8bff">
              <animate attributeName="opacity" values="1;0.2;1" dur="0.8s" repeatCount="indefinite" begin="-0.8s" />
            </circle>
            <text x="140" y="392" font-family="Helvetica Neue,Helvetica,Arial,sans-serif" font-size="15" font-weight="700" fill="#e9f0fa">Data Center</text>
            <text x="140" y="408" font-family="Helvetica Neue,Helvetica,Arial,sans-serif" font-size="10" fill="#4a6a82">Rack · Cabling · Storage</text>
            <text x="140" y="421" font-family="Helvetica Neue,Helvetica,Arial,sans-serif" font-size="10" fill="#4a6a82">Dell · HPE · Schneider</text>
            <line x1="96" y1="448" x2="264" y2="448" stroke="rgba(106,143,168,0.1)" stroke-width="0.8" />
            <text x="96" y="464" font-family="Helvetica Neue,Helvetica,Arial,sans-serif" font-size="9" fill="#2a4872" letter-spacing="0.3">Build → Rack → Scale</text>

            <rect x="670" y="386" width="200" height="118" rx="9" fill="url(#cardBg)" stroke="rgba(106,143,168,0.3)" stroke-width="1" />
            <rect x="670" y="386" width="200" height="3.5" rx="2" fill="#6a8fa8" />
            <rect x="686" y="402" width="32" height="24" rx="4" fill="none" stroke="#6a8fa8" stroke-width="1.3" />
            <path d="M690 426 l4 6 6-6" fill="none" stroke="#6a8fa8" stroke-width="1.2" />
            <line x1="692" y1="410" x2="712" y2="410" stroke="#6a8fa8" stroke-width="1" opacity="0.6" />
            <line x1="692" y1="416" x2="708" y2="416" stroke="#6a8fa8" stroke-width="1" opacity="0.4" />
            <text x="730" y="413" font-family="Helvetica Neue,Helvetica,Arial,sans-serif" font-size="15" font-weight="700" fill="#e9f0fa">Collab</text>
            <text x="730" y="429" font-family="Helvetica Neue,Helvetica,Arial,sans-serif" font-size="10" fill="#4a6a82">UC · VoIP · Video</text>
            <text x="730" y="442" font-family="Helvetica Neue,Helvetica,Arial,sans-serif" font-size="10" fill="#4a6a82">Teams · Webex · Zoom</text>
            <line x1="686" y1="466" x2="854" y2="466" stroke="rgba(106,143,168,0.1)" stroke-width="0.8" />
            <text x="686" y="482" font-family="Helvetica Neue,Helvetica,Arial,sans-serif" font-size="9" fill="#2a4872" letter-spacing="0.3">Deploy → Integrate → Support</text>

            <rect x="890" y="366" width="200" height="118" rx="9" fill="url(#cardBg)" stroke="rgba(106,143,168,0.22)" stroke-width="1" />
            <rect x="890" y="366" width="200" height="3.5" rx="2" fill="#6a8fa8" />
            <circle cx="918" cy="413" r="10" fill="none" stroke="#6a8fa8" stroke-width="1.3">
              <animateTransform attributeName="transform" type="rotate" from="0 918 413" to="360 918 413" dur="6s" repeatCount="indefinite" />
            </circle>
            <circle cx="918" cy="413" r="4" fill="rgba(106,143,168,0.2)" stroke="#6a8fa8" stroke-width="1" />
            <text x="940" y="406" font-family="Helvetica Neue,Helvetica,Arial,sans-serif" font-size="15" font-weight="700" fill="#e9f0fa">Automation</text>
            <text x="940" y="422" font-family="Helvetica Neue,Helvetica,Arial,sans-serif" font-size="10" fill="#4a6a82">Network · IT Process</text>
            <text x="940" y="435" font-family="Helvetica Neue,Helvetica,Arial,sans-serif" font-size="10" fill="#4a6a82">Ansible · Python · APIs</text>
            <line x1="906" y1="460" x2="1074" y2="460" stroke="rgba(106,143,168,0.1)" stroke-width="0.8" />
            <text x="906" y="476" font-family="Helvetica Neue,Helvetica,Arial,sans-serif" font-size="9" fill="#2a4872" letter-spacing="0.3">Script → Test → Deploy</text>

            <rect x="0" y="522" width="1100" height="30" fill="rgba(5,12,26,0.95)" />
            <line x1="0" y1="522" x2="1100" y2="522" stroke="rgba(77,139,255,0.12)" stroke-width="0.8" />
            <circle cx="32" cy="537" r="4" fill="#3cb371" filter="url(#glow3)">
              <animate attributeName="opacity" values="1;0.3;1" dur="1.4s" repeatCount="indefinite" />
            </circle>
            <text x="44" y="541" font-family="Helvetica Neue,Helvetica,Arial,sans-serif" font-size="10" font-weight="600" fill="#3cb371">All Systems Operational</text>
            <text x="240" y="541" font-family="Helvetica Neue,Helvetica,Arial,sans-serif" font-size="10" fill="#1e3560">· 500+ Projects · 300+ Clients · 10+ Yrs · 24/7 Support · Cisco · Juniper · Dell · Microsoft ·</text>
            <text x="980" y="541" font-family="Helvetica Neue,Helvetica,Arial,sans-serif" font-size="9" fill="#162a50">CES Tech 2015</text>
          </svg>
