<svg viewBox="0 0 1100 552" xmlns="http://www.w3.org/2000/svg" aria-hidden="true">
            <defs>
              <filter id="glo">
                <feGaussianBlur stdDeviation="14" result="b" />
                <feMerge>
                  <feMergeNode in="b" />
                  <feMergeNode in="SourceGraphic" />
                </feMerge>
              </filter>
              <filter id="gls">
                <feGaussianBlur stdDeviation="2.5" result="b" />
                <feMerge>
                  <feMergeNode in="b" />
                  <feMergeNode in="SourceGraphic" />
                </feMerge>
              </filter>
              <linearGradient id="cg" x1="0%" y1="0%" x2="0%" y2="100%">
                <stop offset="0%" stop-color="#0d1e3a" />
                <stop offset="100%" stop-color="#070f22" />
              </linearGradient>
              <linearGradient id="prog" x1="0%" y1="0%" x2="100%" y2="0%">
                <stop offset="0%" stop-color="#4d8bff" />
                <stop offset="100%" stop-color="#2a60e0" />
              </linearGradient>
              <path id="dep1" d="M550,276 C480,240 380,220 260,200" />
              <path id="dep2" d="M550,276 C550,220 550,180 550,140" />
              <path id="dep3" d="M550,276 C620,240 720,220 840,200" />
              <path id="ret1" d="M260,200 C380,220 480,240 550,276" />
              <path id="ret2" d="M550,140 C550,180 550,220 550,276" />
              <path id="ret3" d="M840,200 C720,220 620,240 550,276" />
            </defs>

            <rect width="1100" height="552" fill="#050c1a" />
            <g fill="rgba(77,139,255,0.05)">
              <circle cx="92" cy="92" r="1.2" /><circle cx="184" cy="92" r="1.2" /><circle cx="276" cy="92" r="1.2" /><circle cx="368" cy="92" r="1.2" /><circle cx="460" cy="92" r="1.2" /><circle cx="552" cy="92" r="1.2" /><circle cx="644" cy="92" r="1.2" /><circle cx="736" cy="92" r="1.2" /><circle cx="828" cy="92" r="1.2" /><circle cx="920" cy="92" r="1.2" /><circle cx="1012" cy="92" r="1.2" />
              <circle cx="92" cy="184" r="1.2" /><circle cx="184" cy="184" r="1.2" /><circle cx="276" cy="184" r="1.2" /><circle cx="368" cy="184" r="1.2" /><circle cx="460" cy="184" r="1.2" /><circle cx="552" cy="184" r="1.2" /><circle cx="644" cy="184" r="1.2" /><circle cx="736" cy="184" r="1.2" /><circle cx="828" cy="184" r="1.2" /><circle cx="920" cy="184" r="1.2" /><circle cx="1012" cy="184" r="1.2" />
              <circle cx="92" cy="276" r="1.2" /><circle cx="184" cy="276" r="1.2" /><circle cx="276" cy="276" r="1.2" /><circle cx="368" cy="276" r="1.2" /><circle cx="460" cy="276" r="1.2" /><circle cx="644" cy="276" r="1.2" /><circle cx="736" cy="276" r="1.2" /><circle cx="828" cy="276" r="1.2" /><circle cx="920" cy="276" r="1.2" /><circle cx="1012" cy="276" r="1.2" />
              <circle cx="92" cy="368" r="1.2" /><circle cx="184" cy="368" r="1.2" /><circle cx="276" cy="368" r="1.2" /><circle cx="368" cy="368" r="1.2" /><circle cx="460" cy="368" r="1.2" /><circle cx="552" cy="368" r="1.2" /><circle cx="644" cy="368" r="1.2" /><circle cx="736" cy="368" r="1.2" /><circle cx="828" cy="368" r="1.2" /><circle cx="920" cy="368" r="1.2" /><circle cx="1012" cy="368" r="1.2" />
              <circle cx="92" cy="460" r="1.2" /><circle cx="184" cy="460" r="1.2" /><circle cx="276" cy="460" r="1.2" /><circle cx="368" cy="460" r="1.2" /><circle cx="460" cy="460" r="1.2" /><circle cx="552" cy="460" r="1.2" /><circle cx="644" cy="460" r="1.2" /><circle cx="736" cy="460" r="1.2" /><circle cx="828" cy="460" r="1.2" /><circle cx="920" cy="460" r="1.2" /><circle cx="1012" cy="460" r="1.2" />
            </g>
            <ellipse cx="550" cy="276" rx="380" ry="240" fill="rgba(77,139,255,0.05)" filter="url(#glo)" />

            <path d="M550,276 C480,240 380,220 260,200" fill="none" stroke="rgba(77,139,255,0.2)" stroke-width="1.2" />
            <path d="M550,276 C550,220 550,180 550,140" fill="none" stroke="rgba(77,139,255,0.2)" stroke-width="1.2" />
            <path d="M550,276 C620,240 720,220 840,200" fill="none" stroke="rgba(77,139,255,0.2)" stroke-width="1.2" />

            <circle r="5" fill="#4d8bff" filter="url(#gls)"><animateMotion dur="1.2s" repeatCount="indefinite" begin="0s"><mpath href="#dep1" /></animateMotion><animate attributeName="opacity" values="0;1;1;0" dur="1.2s" repeatCount="indefinite" /></circle>
            <circle r="5" fill="#4d8bff" filter="url(#gls)"><animateMotion dur="1s" repeatCount="indefinite" begin="-0.4s"><mpath href="#dep2" /></animateMotion><animate attributeName="opacity" values="0;1;1;0" dur="1s" repeatCount="indefinite" begin="-0.4s" /></circle>
            <circle r="5" fill="#4d8bff" filter="url(#gls)"><animateMotion dur="1.3s" repeatCount="indefinite" begin="-0.8s"><mpath href="#dep3" /></animateMotion><animate attributeName="opacity" values="0;1;1;0" dur="1.3s" repeatCount="indefinite" begin="-0.8s" /></circle>
            <circle r="3" fill="#6a8fa8" filter="url(#gls)"><animateMotion dur="1.4s" repeatCount="indefinite" begin="-0.6s"><mpath href="#ret1" /></animateMotion><animate attributeName="opacity" values="0;1;1;0" dur="1.4s" repeatCount="indefinite" begin="-0.6s" /></circle>
            <circle r="3" fill="#6a8fa8" filter="url(#gls)"><animateMotion dur="1.2s" repeatCount="indefinite" begin="-0.2s"><mpath href="#ret2" /></animateMotion><animate attributeName="opacity" values="0;1;1;0" dur="1.2s" repeatCount="indefinite" begin="-0.2s" /></circle>
            <circle r="3" fill="#6a8fa8" filter="url(#gls)"><animateMotion dur="1.5s" repeatCount="indefinite" begin="-1s"><mpath href="#ret3" /></animateMotion><animate attributeName="opacity" values="0;1;1;0" dur="1.5s" repeatCount="indefinite" begin="-1s" /></circle>

            <circle cx="550" cy="276" r="70" fill="rgba(8,18,42,0.98)" stroke="#4d8bff" stroke-width="1.6" filter="url(#gls)" />
            <circle cx="550" cy="276" r="55" fill="rgba(20,50,110,0.3)" stroke="rgba(77,139,255,0.2)" stroke-width="1" />
            <rect x="528" y="256" width="44" height="8" rx="2" fill="none" stroke="#4d8bff" stroke-width="1.3" />
            <rect x="528" y="268" width="44" height="8" rx="2" fill="none" stroke="#4d8bff" stroke-width="1.3" opacity="0.7" />
            <rect x="528" y="280" width="44" height="8" rx="2" fill="none" stroke="#4d8bff" stroke-width="1.3" opacity="0.5" />
            <circle cx="536" cy="260" r="2" fill="#4d8bff"><animate attributeName="opacity" values="1;0.2;1" dur="0.8s" repeatCount="indefinite" /></circle>
            <circle cx="536" cy="272" r="2" fill="#3cb371"><animate attributeName="opacity" values="1;0.2;1" dur="1.1s" repeatCount="indefinite" begin="-0.3s" /></circle>
            <circle cx="536" cy="284" r="2" fill="#4d8bff"><animate attributeName="opacity" values="1;0.2;1" dur="0.9s" repeatCount="indefinite" begin="-0.6s" /></circle>
            <text x="550" y="304" text-anchor="middle" font-family="Helvetica Neue,Helvetica,Arial,sans-serif" font-size="11" font-weight="700" fill="#4d8bff">CES TECH</text>
            <text x="550" y="318" text-anchor="middle" font-family="Helvetica Neue,Helvetica,Arial,sans-serif" font-size="8" fill="#2a4872">RENTAL HUB</text>
            <circle cx="550" cy="276" r="78" fill="none" stroke="rgba(77,139,255,0.1)" stroke-width="1" stroke-dasharray="6 5">
              <animateTransform attributeName="transform" type="rotate" from="0 550 276" to="360 550 276" dur="14s" repeatCount="indefinite" />
            </circle>

            <rect x="160" y="144" width="200" height="112" rx="10" fill="url(#cg)" stroke="rgba(77,139,255,0.28)" stroke-width="1" />
            <rect x="160" y="144" width="200" height="3.5" rx="2" fill="#4d8bff" />
            <text x="260" y="168" text-anchor="middle" font-family="Helvetica Neue,Helvetica,Arial,sans-serif" font-size="13" font-weight="700" fill="#e9f0fa">Corporate HQ</text>
            <text x="260" y="184" text-anchor="middle" font-family="Helvetica Neue,Helvetica,Arial,sans-serif" font-size="10" fill="#4a6a82">Router · 4x Switches</text>
            <text x="260" y="197" text-anchor="middle" font-family="Helvetica Neue,Helvetica,Arial,sans-serif" font-size="10" fill="#4a6a82">8x APs · Firewall</text>
            <line x1="176" y1="210" x2="344" y2="210" stroke="rgba(77,139,255,0.1)" stroke-width="0.8" />
            <text x="260" y="224" text-anchor="middle" font-family="Helvetica Neue,Helvetica,Arial,sans-serif" font-size="9" fill="#3cb371">Active Rental · 12 months</text>
            <text x="260" y="238" text-anchor="middle" font-family="Helvetica Neue,Helvetica,Arial,sans-serif" font-size="9" fill="#2a4872">Cisco · Aruba · Fortinet</text>

            <rect x="450" y="68" width="200" height="112" rx="10" fill="url(#cg)" stroke="rgba(77,139,255,0.28)" stroke-width="1" />
            <rect x="450" y="68" width="200" height="3.5" rx="2" fill="#4d8bff" />
            <text x="550" y="92" text-anchor="middle" font-family="Helvetica Neue,Helvetica,Arial,sans-serif" font-size="13" font-weight="700" fill="#e9f0fa">Event Site</text>
            <text x="550" y="108" text-anchor="middle" font-family="Helvetica Neue,Helvetica,Arial,sans-serif" font-size="10" fill="#4a6a82">Temp Wi-Fi · PoE Switches</text>
            <text x="550" y="121" text-anchor="middle" font-family="Helvetica Neue,Helvetica,Arial,sans-serif" font-size="10" fill="#4a6a82">Video conf · Cabling</text>
            <line x1="466" y1="134" x2="634" y2="134" stroke="rgba(77,139,255,0.1)" stroke-width="0.8" />
            <text x="550" y="148" text-anchor="middle" font-family="Helvetica Neue,Helvetica,Arial,sans-serif" font-size="9" fill="#e8a020">Short-term · 3 days</text>
            <text x="550" y="162" text-anchor="middle" font-family="Helvetica Neue,Helvetica,Arial,sans-serif" font-size="9" fill="#2a4872">Aruba · Cisco Meraki</text>

            <rect x="740" y="144" width="200" height="112" rx="10" fill="url(#cg)" stroke="rgba(77,139,255,0.28)" stroke-width="1" />
            <rect x="740" y="144" width="200" height="3.5" rx="2" fill="#4d8bff" />
            <text x="840" y="168" text-anchor="middle" font-family="Helvetica Neue,Helvetica,Arial,sans-serif" font-size="13" font-weight="700" fill="#e9f0fa">Branch Office</text>
            <text x="840" y="184" text-anchor="middle" font-family="Helvetica Neue,Helvetica,Arial,sans-serif" font-size="10" fill="#4a6a82">Router · Switch · 2x APs</text>
            <text x="840" y="197" text-anchor="middle" font-family="Helvetica Neue,Helvetica,Arial,sans-serif" font-size="10" fill="#4a6a82">Server · UPS</text>
            <line x1="756" y1="210" x2="924" y2="210" stroke="rgba(77,139,255,0.1)" stroke-width="0.8" />
            <text x="840" y="224" text-anchor="middle" font-family="Helvetica Neue,Helvetica,Arial,sans-serif" font-size="9" fill="#3cb371">Active Rental · 6 months</text>
            <text x="840" y="238" text-anchor="middle" font-family="Helvetica Neue,Helvetica,Arial,sans-serif" font-size="9" fill="#2a4872">Juniper · HPE · Cisco</text>

            <rect x="40" y="368" width="490" height="136" rx="12" fill="rgba(7,14,30,0.95)" stroke="rgba(77,139,255,0.14)" stroke-width="1" />
            <rect x="40" y="368" width="490" height="4" rx="2" fill="#4d8bff" />
            <text x="60" y="392" font-family="Helvetica Neue,Helvetica,Arial,sans-serif" font-size="10" font-weight="600" fill="#2a4a7a" letter-spacing="1.5">RENTAL FLEET</text>
            <g font-family="Helvetica Neue,Helvetica,Arial,sans-serif">
              <text x="60" y="416" font-size="11" fill="#e9f0fa">Routers &amp; Switches</text><text x="230" y="416" font-size="10" fill="#4a6a82">Cisco · Juniper · Aruba</text>
              <text x="60" y="434" font-size="11" fill="#e9f0fa">Firewalls &amp; UTM</text><text x="230" y="434" font-size="10" fill="#4a6a82">Fortinet · Palo Alto · SonicWall</text>
              <text x="60" y="452" font-size="11" fill="#e9f0fa">Servers &amp; Storage</text><text x="230" y="452" font-size="10" fill="#4a6a82">Dell · HPE · Lenovo</text>
              <text x="60" y="470" font-size="11" fill="#e9f0fa">Wireless Infrastructure</text><text x="230" y="470" font-size="10" fill="#4a6a82">Wi-Fi 6 APs · Controllers</text>
              <text x="60" y="488" font-size="11" fill="#e9f0fa">Video Conferencing</text><text x="230" y="488" font-size="10" fill="#4a6a82">Cisco Webex · Poly rooms</text>
            </g>

            <rect x="548" y="368" width="512" height="136" rx="12" fill="rgba(7,14,30,0.95)" stroke="rgba(77,139,255,0.14)" stroke-width="1" />
            <rect x="548" y="368" width="512" height="4" rx="2" fill="#6a8fa8" />
            <text x="568" y="392" font-family="Helvetica Neue,Helvetica,Arial,sans-serif" font-size="10" font-weight="600" fill="#2a4a7a" letter-spacing="1.5">HOW IT WORKS</text>
            <line x1="596" y1="404" x2="596" y2="492" stroke="rgba(77,139,255,0.1)" stroke-width="1" stroke-dasharray="3 4" />
            <g font-family="Helvetica Neue,Helvetica,Arial,sans-serif">
              <circle cx="596" cy="416" r="8" fill="#4d8bff" filter="url(#gls)" /><text x="596" y="420" text-anchor="middle" font-size="8" font-weight="700" fill="#fff">1</text>
              <text x="614" y="412" font-size="12" font-weight="700" fill="#e9f0fa">Requirement Brief</text><text x="614" y="424" font-size="10" fill="#4a6a82">Scope · duration · site details</text>

              <circle cx="596" cy="444" r="8" fill="#4d8bff" filter="url(#gls)" /><text x="596" y="448" text-anchor="middle" font-size="8" font-weight="700" fill="#fff">2</text>
              <text x="614" y="440" font-size="12" font-weight="700" fill="#e9f0fa">Equipment Staging</text><text x="614" y="452" font-size="10" fill="#4a6a82">Pre-configured, tested &amp; bagged</text>

              <circle cx="596" cy="472" r="8" fill="#6a8fa8" filter="url(#gls)" /><text x="596" y="476" text-anchor="middle" font-size="8" font-weight="700" fill="#fff">3</text>
              <text x="614" y="468" font-size="12" font-weight="700" fill="#e9f0fa">Deploy &amp; Support</text><text x="614" y="480" font-size="10" fill="#4a6a82">On-site install · 24/7 during event</text>

              <circle cx="596" cy="492" r="8" fill="#6a8fa8" filter="url(#gls)" /><text x="596" y="496" text-anchor="middle" font-size="8" font-weight="700" fill="#fff">4</text>
              <text x="614" y="492" font-size="12" font-weight="700" fill="#e9f0fa">Return &amp; Audit</text>

              <rect x="820" y="410" width="72" height="20" rx="5" fill="rgba(77,139,255,0.1)" stroke="rgba(77,139,255,0.2)" stroke-width="0.8" />
              <text x="856" y="424" text-anchor="middle" font-size="9" font-weight="600" fill="#4d8bff">Daily</text>
              <rect x="902" y="410" width="72" height="20" rx="5" fill="rgba(77,139,255,0.1)" stroke="rgba(77,139,255,0.2)" stroke-width="0.8" />
              <text x="938" y="424" text-anchor="middle" font-size="9" font-weight="600" fill="#4d8bff">Monthly</text>
              <rect x="984" y="410" width="72" height="20" rx="5" fill="rgba(77,139,255,0.1)" stroke="rgba(77,139,255,0.2)" stroke-width="0.8" />
              <text x="1020" y="424" text-anchor="middle" font-size="9" font-weight="600" fill="#4d8bff">Annual</text>

              <text x="820" y="450" font-size="9" fill="#2a4872">Lease terms: Daily · Weekly · Monthly · Annual</text>
              <text x="820" y="464" font-size="9" fill="#2a4872">Insurance &amp; logistics included</text>
              <text x="820" y="478" font-size="9" fill="#2a4872">No CAPEX — pure OPEX model</text>
            </g>

            <rect x="0" y="522" width="1100" height="30" fill="rgba(5,12,26,0.98)" />
            <line x1="0" y1="522" x2="1100" y2="522" stroke="rgba(77,139,255,0.12)" stroke-width="0.8" />
            <circle cx="32" cy="537" r="4" fill="#3cb371" filter="url(#gls)"><animate attributeName="opacity" values="1;0.3;1" dur="1.4s" repeatCount="indefinite" /></circle>
            <text x="44" y="541" font-family="Helvetica Neue,Helvetica,Arial,sans-serif" font-size="10" font-weight="600" fill="#3cb371">Fleet Ready</text>
            <text x="170" y="541" font-family="Helvetica Neue,Helvetica,Arial,sans-serif" font-size="10" fill="#1e3560">Daily / Monthly / Annual lease · Pre-configured &amp; tested · No CAPEX · On-site support · All OEM brands</text>
          </svg>
