<svg viewBox="0 0 1100 552" xmlns="http://www.w3.org/2000/svg" aria-hidden="true">
            <defs>
              <filter id="glo">
                <feGaussianBlur stdDeviation="14" result="b" />
                <feMerge>
                  <feMergeNode in="b" />
                  <feMergeNode in="SourceGraphic" />
                </feMerge>
              </filter>
              <filter id="gls">
                <feGaussianBlur stdDeviation="2.5" result="b" />
                <feMerge>
                  <feMergeNode in="b" />
                  <feMergeNode in="SourceGraphic" />
                </feMerge>
              </filter>
              <linearGradient id="cg" x1="0%" y1="0%" x2="0%" y2="100%">
                <stop offset="0%" stop-color="#0d1e3a" />
                <stop offset="100%" stop-color="#070f22" />
              </linearGradient>
              <linearGradient id="gg" x1="0%" y1="0%" x2="100%" y2="0%">
                <stop offset="0%" stop-color="#3cb371" stop-opacity="0" />
                <stop offset="50%" stop-color="#3cb371" />
                <stop offset="100%" stop-color="#3cb371" stop-opacity="0" />
              </linearGradient>
            </defs>

            <rect width="1100" height="552" fill="#050c1a" />
            <g fill="rgba(77,139,255,0.05)">
              <circle cx="92" cy="92" r="1.2" /><circle cx="184" cy="92" r="1.2" /><circle cx="276" cy="92" r="1.2" /><circle cx="368" cy="92" r="1.2" /><circle cx="460" cy="92" r="1.2" /><circle cx="552" cy="92" r="1.2" /><circle cx="644" cy="92" r="1.2" /><circle cx="736" cy="92" r="1.2" /><circle cx="828" cy="92" r="1.2" /><circle cx="920" cy="92" r="1.2" /><circle cx="1012" cy="92" r="1.2" />
              <circle cx="92" cy="184" r="1.2" /><circle cx="184" cy="184" r="1.2" /><circle cx="276" cy="184" r="1.2" /><circle cx="368" cy="184" r="1.2" /><circle cx="460" cy="184" r="1.2" /><circle cx="552" cy="184" r="1.2" /><circle cx="644" cy="184" r="1.2" /><circle cx="736" cy="184" r="1.2" /><circle cx="828" cy="184" r="1.2" /><circle cx="920" cy="184" r="1.2" /><circle cx="1012" cy="184" r="1.2" />
              <circle cx="92" cy="276" r="1.2" /><circle cx="184" cy="276" r="1.2" /><circle cx="276" cy="276" r="1.2" /><circle cx="368" cy="276" r="1.2" /><circle cx="460" cy="276" r="1.2" /><circle cx="644" cy="276" r="1.2" /><circle cx="736" cy="276" r="1.2" /><circle cx="828" cy="276" r="1.2" /><circle cx="920" cy="276" r="1.2" /><circle cx="1012" cy="276" r="1.2" />
              <circle cx="92" cy="368" r="1.2" /><circle cx="184" cy="368" r="1.2" /><circle cx="276" cy="368" r="1.2" /><circle cx="368" cy="368" r="1.2" /><circle cx="460" cy="368" r="1.2" /><circle cx="552" cy="368" r="1.2" /><circle cx="644" cy="368" r="1.2" /><circle cx="736" cy="368" r="1.2" /><circle cx="828" cy="368" r="1.2" /><circle cx="920" cy="368" r="1.2" /><circle cx="1012" cy="368" r="1.2" />
              <circle cx="92" cy="460" r="1.2" /><circle cx="184" cy="460" r="1.2" /><circle cx="276" cy="460" r="1.2" /><circle cx="368" cy="460" r="1.2" /><circle cx="460" cy="460" r="1.2" /><circle cx="552" cy="460" r="1.2" /><circle cx="644" cy="460" r="1.2" /><circle cx="736" cy="460" r="1.2" /><circle cx="828" cy="460" r="1.2" /><circle cx="920" cy="460" r="1.2" /><circle cx="1012" cy="460" r="1.2" />
            </g>
            <ellipse cx="550" cy="276" rx="400" ry="250" fill="rgba(77,139,255,0.04)" filter="url(#glo)" />

            <rect x="40" y="40" width="460" height="472" rx="12" fill="rgba(7,14,30,0.95)" stroke="rgba(77,139,255,0.14)" stroke-width="1" />
            <rect x="40" y="40" width="460" height="4" rx="2" fill="#4d8bff" />
            <text x="60" y="64" font-family="Helvetica Neue,Helvetica,Arial,sans-serif" font-size="10" font-weight="600" fill="#2a4a7a" letter-spacing="1.5">NOC - LIVE MONITORING</text>
            <circle cx="480" cy="57" r="4" fill="#3cb371" filter="url(#gls)"><animate attributeName="opacity" values="1;0.2;1" dur="1s" repeatCount="indefinite" /></circle>
            <text x="462" y="61" text-anchor="end" font-family="Helvetica Neue,Helvetica,Arial,sans-serif" font-size="9" fill="#3cb371">LIVE</text>

            <text x="260" y="118" text-anchor="middle" font-family="Helvetica Neue,Helvetica,Arial,sans-serif" font-size="52" font-weight="700" fill="#4d8bff" letter-spacing="-2">99.9%</text>
            <text x="260" y="138" text-anchor="middle" font-family="Helvetica Neue,Helvetica,Arial,sans-serif" font-size="11" fill="#2a4872" letter-spacing="1.5">NETWORK UPTIME SLA</text>

            <rect x="60" y="152" width="420" height="60" rx="5" fill="rgba(5,12,26,0.8)" stroke="rgba(77,139,255,0.1)" stroke-width="0.8" />
            <text x="70" y="168" font-family="Helvetica Neue,Helvetica,Arial,sans-serif" font-size="8" fill="#2a4a7a" letter-spacing="1">TRAFFIC · Gbps</text>
            <rect x="70" y="190" width="8" height="18" rx="1" fill="#4d8bff" opacity="0.6"><animate attributeName="height" values="18;28;12;22;18" dur="3s" repeatCount="indefinite" /><animate attributeName="y" values="190;180;196;186;190" dur="3s" repeatCount="indefinite" /></rect>
            <rect x="84" y="185" width="8" height="23" rx="1" fill="#4d8bff" opacity="0.65"><animate attributeName="height" values="23;14;30;20;23" dur="3.2s" repeatCount="indefinite" begin="-0.3s" /><animate attributeName="y" values="185;194;178;188;185" dur="3.2s" repeatCount="indefinite" begin="-0.3s" /></rect>
            <rect x="98" y="192" width="8" height="16" rx="1" fill="#4d8bff" opacity="0.5"><animate attributeName="height" values="16;24;10;20;16" dur="2.8s" repeatCount="indefinite" begin="-0.6s" /><animate attributeName="y" values="192;184;198;188;192" dur="2.8s" repeatCount="indefinite" begin="-0.6s" /></rect>
            <rect x="112" y="183" width="8" height="25" rx="1" fill="#4d8bff" opacity="0.7"><animate attributeName="height" values="25;16;28;12;25" dur="3.4s" repeatCount="indefinite" begin="-0.9s" /><animate attributeName="y" values="183;192;180;196;183" dur="3.4s" repeatCount="indefinite" begin="-0.9s" /></rect>
            <rect x="126" y="189" width="8" height="19" rx="1" fill="#4d8bff" opacity="0.55"><animate attributeName="height" values="19;28;14;22;19" dur="3s" repeatCount="indefinite" begin="-1.2s" /><animate attributeName="y" values="189;180;194;186;189" dur="3s" repeatCount="indefinite" begin="-1.2s" /></rect>
            <rect x="140" y="186" width="8" height="22" rx="1" fill="#4d8bff" opacity="0.6"><animate attributeName="height" values="22;14;26;18;22" dur="2.6s" repeatCount="indefinite" begin="-1.5s" /><animate attributeName="y" values="186;194;182;190;186" dur="2.6s" repeatCount="indefinite" begin="-1.5s" /></rect>
            <rect x="154" y="191" width="8" height="17" rx="1" fill="#4d8bff" opacity="0.5"><animate attributeName="height" values="17;26;11;21;17" dur="3.1s" repeatCount="indefinite" begin="-1.8s" /><animate attributeName="y" values="191;182;197;187;191" dur="3.1s" repeatCount="indefinite" begin="-1.8s" /></rect>
            <rect x="168" y="184" width="8" height="24" rx="1" fill="#4d8bff" opacity="0.65"><animate attributeName="height" values="24;15;29;13;24" dur="2.9s" repeatCount="indefinite" begin="-0.2s" /><animate attributeName="y" values="184;193;179;195;184" dur="2.9s" repeatCount="indefinite" begin="-0.2s" /></rect>
            <rect x="182" y="190" width="8" height="18" rx="1" fill="#4d8bff" opacity="0.55"><animate attributeName="height" values="18;26;12;22;18" dur="3.3s" repeatCount="indefinite" begin="-0.5s" /></rect>
            <rect x="196" y="187" width="8" height="21" rx="1" fill="#4d8bff" opacity="0.6"><animate attributeName="height" values="21;13;27;17;21" dur="2.7s" repeatCount="indefinite" begin="-0.8s" /></rect>
            <rect x="210" y="192" width="8" height="16" rx="1" fill="#4d8bff" opacity="0.5"><animate attributeName="height" values="16;25;10;20;16" dur="3.5s" repeatCount="indefinite" begin="-1.1s" /></rect>
            <rect x="224" y="185" width="8" height="23" rx="1" fill="#4d8bff" opacity="0.65"><animate attributeName="height" values="23;14;29;19;23" dur="3s" repeatCount="indefinite" begin="-1.4s" /></rect>
            <rect x="238" y="189" width="8" height="19" rx="1" fill="#6a8fa8" opacity="0.5"><animate attributeName="height" values="19;28;13;23;19" dur="2.8s" repeatCount="indefinite" begin="-0.4s" /></rect>
            <rect x="252" y="183" width="8" height="25" rx="1" fill="#6a8fa8" opacity="0.55"><animate attributeName="height" values="25;16;30;14;25" dur="3.2s" repeatCount="indefinite" begin="-0.7s" /></rect>
            <rect x="266" y="188" width="8" height="20" rx="1" fill="#6a8fa8" opacity="0.5"><animate attributeName="height" values="20;28;14;22;20" dur="3s" repeatCount="indefinite" begin="-1s" /></rect>
            <rect x="280" y="186" width="8" height="22" rx="1" fill="#4d8bff" opacity="0.6"><animate attributeName="height" values="22;13;27;17;22" dur="2.9s" repeatCount="indefinite" begin="-1.3s" /></rect>
            <rect x="294" y="191" width="8" height="17" rx="1" fill="#4d8bff" opacity="0.55"><animate attributeName="height" values="17;26;11;21;17" dur="3.4s" repeatCount="indefinite" begin="-0.1s" /></rect>
            <rect x="308" y="184" width="8" height="24" rx="1" fill="#4d8bff" opacity="0.65"><animate attributeName="height" values="24;15;30;12;24" dur="2.7s" repeatCount="indefinite" begin="-0.6s" /></rect>
            <rect x="322" y="190" width="8" height="18" rx="1" fill="#4d8bff" opacity="0.5"><animate attributeName="height" values="18;27;12;22;18" dur="3.1s" repeatCount="indefinite" begin="-0.9s" /></rect>
            <rect x="336" y="185" width="8" height="23" rx="1" fill="#4d8bff" opacity="0.6"><animate attributeName="height" values="23;14;28;18;23" dur="3.3s" repeatCount="indefinite" begin="-1.2s" /></rect>
            <rect x="350" y="189" width="8" height="19" rx="1" fill="#6a8fa8" opacity="0.5"><animate attributeName="height" values="19;28;13;23;19" dur="2.8s" repeatCount="indefinite" begin="-1.5s" /></rect>
            <rect x="364" y="183" width="8" height="25" rx="1" fill="#6a8fa8" opacity="0.55"><animate attributeName="height" values="25;15;30;14;25" dur="3.2s" repeatCount="indefinite" begin="-0.3s" /></rect>
            <rect x="378" y="187" width="8" height="21" rx="1" fill="#4d8bff" opacity="0.6"><animate attributeName="height" values="21;13;27;17;21" dur="3s" repeatCount="indefinite" begin="-0.8s" /></rect>
            <rect x="392" y="192" width="8" height="16" rx="1" fill="#4d8bff" opacity="0.5"><animate attributeName="height" values="16;25;10;20;16" dur="2.6s" repeatCount="indefinite" begin="-1.1s" /></rect>
            <rect x="406" y="185" width="8" height="23" rx="1" fill="#4d8bff" opacity="0.65"><animate attributeName="height" values="23;14;29;19;23" dur="3.4s" repeatCount="indefinite" begin="-1.4s" /></rect>
            <rect x="420" y="190" width="8" height="18" rx="1" fill="#4d8bff" opacity="0.6"><animate attributeName="height" values="18;27;12;22;18" dur="2.9s" repeatCount="indefinite" begin="-0.5s" /></rect>
            <rect x="434" y="184" width="8" height="24" rx="1" fill="#6a8fa8" opacity="0.55"><animate attributeName="height" values="24;15;29;13;24" dur="3.1s" repeatCount="indefinite" begin="-0.2s" /></rect>
            <rect x="448" y="188" width="8" height="20" rx="1" fill="#4d8bff" opacity="0.5"><animate attributeName="height" values="20;28;14;22;20" dur="3.3s" repeatCount="indefinite" begin="-0.7s" /></rect>
            <rect x="462" y="186" width="8" height="22" rx="1" fill="#4d8bff" opacity="0.6"><animate attributeName="height" values="22;13;27;17;22" dur="2.7s" repeatCount="indefinite" begin="-1s" /></rect>

            <rect x="60" y="228" width="420" height="72" rx="8" fill="rgba(5,12,26,0.7)" stroke="rgba(77,139,255,0.08)" stroke-width="0.8" />
            <line x1="200" y1="236" x2="200" y2="292" stroke="rgba(77,139,255,0.1)" stroke-width="0.8" />
            <line x1="340" y1="236" x2="340" y2="292" stroke="rgba(77,139,255,0.1)" stroke-width="0.8" />
            <text x="130" y="258" text-anchor="middle" font-family="Helvetica Neue,Helvetica,Arial,sans-serif" font-size="24" font-weight="700" fill="#4d8bff">24/7</text>
            <text x="130" y="275" text-anchor="middle" font-family="Helvetica Neue,Helvetica,Arial,sans-serif" font-size="9" fill="#2a4872" letter-spacing="0.5">MONITORING</text>
            <text x="270" y="258" text-anchor="middle" font-family="Helvetica Neue,Helvetica,Arial,sans-serif" font-size="24" font-weight="700" fill="#6a8fa8">&lt;15min</text>
            <text x="270" y="275" text-anchor="middle" font-family="Helvetica Neue,Helvetica,Arial,sans-serif" font-size="9" fill="#2a4872" letter-spacing="0.5">MTTR SLA</text>
            <text x="410" y="258" text-anchor="middle" font-family="Helvetica Neue,Helvetica,Arial,sans-serif" font-size="24" font-weight="700" fill="#4d8bff">NOC</text>
            <text x="410" y="275" text-anchor="middle" font-family="Helvetica Neue,Helvetica,Arial,sans-serif" font-size="9" fill="#2a4872" letter-spacing="0.5">DEDICATED TEAM</text>

            <rect x="60" y="312" width="420" height="24" rx="5" fill="rgba(5,12,26,0.8)" stroke="rgba(77,139,255,0.08)" stroke-width="0.8" />
            <circle cx="76" cy="324" r="4" fill="#3cb371"><animate attributeName="opacity" values="1;0.2;1" dur="0.8s" repeatCount="indefinite" /></circle>
            <text x="88" y="328" font-family="Helvetica Neue,Helvetica,Arial,sans-serif" font-size="9" fill="#3cb371">OK</text>
            <text x="112" y="328" font-family="Helvetica Neue,Helvetica,Arial,sans-serif" font-size="9" fill="#4a6680">192.168.1.1 · Cisco Core · Latency 2ms · CPU 18%</text>

            <text x="60" y="358" font-family="Helvetica Neue,Helvetica,Arial,sans-serif" font-size="9" font-weight="600" fill="#2a4a7a" letter-spacing="1">MONITORED DEVICES</text>
            <g font-family="Helvetica Neue,Helvetica,Arial,sans-serif">
              <circle cx="72" cy="376" r="4" fill="#3cb371"><animate attributeName="opacity" values="1;0.3;1" dur="1.1s" repeatCount="indefinite" /></circle>
              <text x="84" y="380" font-size="10" fill="#e9f0fa">Core Router</text><text x="260" y="380" font-size="9" fill="#2a4872">192.168.0.1</text><text x="380" y="380" font-size="9" fill="#3cb371">Online</text>
              <circle cx="72" cy="396" r="4" fill="#3cb371"><animate attributeName="opacity" values="1;0.3;1" dur="0.9s" repeatCount="indefinite" begin="-0.2s" /></circle>
              <text x="84" y="400" font-size="10" fill="#e9f0fa">Firewall FG60</text><text x="260" y="400" font-size="9" fill="#2a4872">192.168.0.2</text><text x="380" y="400" font-size="9" fill="#3cb371">Online</text>
              <circle cx="72" cy="416" r="4" fill="#3cb371"><animate attributeName="opacity" values="1;0.3;1" dur="1.3s" repeatCount="indefinite" begin="-0.4s" /></circle>
              <text x="84" y="420" font-size="10" fill="#e9f0fa">Switch L3 Stack</text><text x="260" y="420" font-size="9" fill="#2a4872">192.168.0.3</text><text x="380" y="420" font-size="9" fill="#3cb371">Online</text>
              <circle cx="72" cy="436" r="4" fill="#e8a020"><animate attributeName="opacity" values="1;0.3;1" dur="0.7s" repeatCount="indefinite" begin="-0.6s" /></circle>
              <text x="84" y="440" font-size="10" fill="#e9f0fa">AP Cluster B</text><text x="260" y="440" font-size="9" fill="#2a4872">192.168.1.10</text><text x="380" y="440" font-size="9" fill="#e8a020">Warn</text>
              <circle cx="72" cy="456" r="4" fill="#3cb371"><animate attributeName="opacity" values="1;0.3;1" dur="1.2s" repeatCount="indefinite" begin="-0.8s" /></circle>
              <text x="84" y="460" font-size="10" fill="#e9f0fa">WAN Edge GW</text><text x="260" y="460" font-size="9" fill="#2a4872">10.0.0.1</text><text x="380" y="460" font-size="9" fill="#3cb371">Online</text>
              <circle cx="72" cy="476" r="4" fill="#3cb371"><animate attributeName="opacity" values="1;0.3;1" dur="1s" repeatCount="indefinite" begin="-0.5s" /></circle>
              <text x="84" y="480" font-size="10" fill="#e9f0fa">Data Center SW</text><text x="260" y="480" font-size="9" fill="#2a4872">192.168.2.1</text><text x="380" y="480" font-size="9" fill="#3cb371">Online</text>
            </g>

            <rect x="540" y="40" width="520" height="472" rx="12" fill="rgba(7,14,30,0.95)" stroke="rgba(77,139,255,0.12)" stroke-width="1" />
            <rect x="540" y="40" width="520" height="4" rx="2" fill="#6a8fa8" />
            <text x="560" y="64" font-family="Helvetica Neue,Helvetica,Arial,sans-serif" font-size="10" font-weight="600" fill="#2a4a7a" letter-spacing="1.5">WHAT WE MANAGE</text>

            <g font-family="Helvetica Neue,Helvetica,Arial,sans-serif">
              <rect x="560" y="78" width="228" height="118" rx="9" fill="rgba(10,22,46,0.95)" stroke="rgba(77,139,255,0.22)" stroke-width="1" />
              <rect x="560" y="78" width="228" height="3.5" rx="2" fill="#4d8bff" />
              <text x="580" y="108" font-size="15" font-weight="700" fill="#e9f0fa">Network Mgmt</text>
              <text x="580" y="125" font-size="10" fill="#4a6a82">Routers · Switches · Firewalls</text>
              <text x="580" y="139" font-size="10" fill="#4a6a82">Config backup · Patch mgmt</text>
              <line x1="576" y1="153" x2="780" y2="153" stroke="rgba(77,139,255,0.1)" stroke-width="0.8" />
              <text x="576" y="168" font-size="9" fill="#2a4872">Monitor → Alert → Remediate</text>

              <rect x="808" y="78" width="228" height="118" rx="9" fill="rgba(10,22,46,0.95)" stroke="rgba(77,139,255,0.22)" stroke-width="1" />
              <rect x="808" y="78" width="228" height="3.5" rx="2" fill="#4d8bff" />
              <text x="828" y="108" font-size="15" font-weight="700" fill="#e9f0fa">Server Mgmt</text>
              <text x="828" y="125" font-size="10" fill="#4a6a82">Windows · Linux · VMware</text>
              <text x="828" y="139" font-size="10" fill="#4a6a82">Patching · Backup · DR</text>
              <line x1="824" y1="153" x2="1028" y2="153" stroke="rgba(77,139,255,0.1)" stroke-width="0.8" />
              <text x="824" y="168" font-size="9" fill="#2a4872">Deploy → Harden → Backup</text>

              <rect x="560" y="212" width="228" height="118" rx="9" fill="rgba(10,22,46,0.95)" stroke="rgba(106,143,168,0.2)" stroke-width="1" />
              <rect x="560" y="212" width="228" height="3.5" rx="2" fill="#6a8fa8" />
              <text x="580" y="242" font-size="15" font-weight="700" fill="#e9f0fa">Security Ops</text>
              <text x="580" y="259" font-size="10" fill="#4a6a82">SIEM · SOC · Threat intel</text>
              <text x="580" y="273" font-size="10" fill="#4a6a82">Incident response &amp; forensics</text>
              <line x1="576" y1="287" x2="780" y2="287" stroke="rgba(106,143,168,0.1)" stroke-width="0.8" />
              <text x="576" y="302" font-size="9" fill="#2a4872">Detect → Contain → Recover</text>

              <rect x="808" y="212" width="228" height="118" rx="9" fill="rgba(10,22,46,0.95)" stroke="rgba(106,143,168,0.2)" stroke-width="1" />
              <rect x="808" y="212" width="228" height="3.5" rx="2" fill="#6a8fa8" />
              <text x="828" y="242" font-size="15" font-weight="700" fill="#e9f0fa">Cloud Mgmt</text>
              <text x="828" y="259" font-size="10" fill="#4a6a82">Azure · AWS · Hybrid</text>
              <text x="828" y="273" font-size="10" fill="#4a6a82">Cost optimisation · FinOps</text>
              <line x1="824" y1="287" x2="1028" y2="287" stroke="rgba(106,143,168,0.1)" stroke-width="0.8" />
              <text x="824" y="302" font-size="9" fill="#2a4872">Provision → Optimise → Scale</text>

              <rect x="560" y="346" width="228" height="118" rx="9" fill="rgba(10,22,46,0.95)" stroke="rgba(77,139,255,0.18)" stroke-width="1" />
              <rect x="560" y="346" width="228" height="3.5" rx="2" fill="#4d8bff" />
              <text x="580" y="376" font-size="15" font-weight="700" fill="#e9f0fa">Helpdesk L1-L3</text>
              <text x="580" y="393" font-size="10" fill="#4a6a82">Ticket mgmt · Remote support</text>
              <text x="580" y="407" font-size="10" fill="#4a6a82">SLA-bound resolution</text>
              <line x1="576" y1="421" x2="780" y2="421" stroke="rgba(77,139,255,0.1)" stroke-width="0.8" />
              <text x="576" y="436" font-size="9" fill="#2a4872">Log → Triage → Resolve</text>

              <rect x="808" y="346" width="228" height="118" rx="9" fill="rgba(10,22,46,0.95)" stroke="rgba(77,139,255,0.18)" stroke-width="1" />
              <rect x="808" y="346" width="228" height="3.5" rx="2" fill="#4d8bff" />
              <text x="828" y="376" font-size="15" font-weight="700" fill="#e9f0fa">Reporting</text>
              <text x="828" y="393" font-size="10" fill="#4a6a82">Monthly MIS reports</text>
              <text x="828" y="407" font-size="10" fill="#4a6a82">SLA dashboards · Audits</text>
              <line x1="824" y1="421" x2="1028" y2="421" stroke="rgba(77,139,255,0.1)" stroke-width="0.8" />
              <text x="824" y="436" font-size="9" fill="#2a4872">Collect → Analyse → Report</text>
            </g>

            <rect x="0" y="522" width="1100" height="30" fill="rgba(5,12,26,0.95)" />
            <line x1="0" y1="522" x2="1100" y2="522" stroke="rgba(77,139,255,0.12)" stroke-width="0.8" />
            <circle cx="32" cy="537" r="4" fill="#3cb371" filter="url(#gls)"><animate attributeName="opacity" values="1;0.3;1" dur="1.4s" repeatCount="indefinite" /></circle>
            <text x="44" y="541" font-family="Helvetica Neue,Helvetica,Arial,sans-serif" font-size="10" font-weight="600" fill="#3cb371">NOC Monitoring Active</text>
            <text x="230" y="541" font-family="Helvetica Neue,Helvetica,Arial,sans-serif" font-size="10" fill="#1e3560">99.9% Uptime SLA · MTTR &lt;15min · Dedicated NOC · Monthly MIS · 24/7</text>
          </svg>
