<svg viewBox="0 0 1100 552" xmlns="http://www.w3.org/2000/svg" aria-hidden="true">
            <defs>
              <filter id="glo">
                <feGaussianBlur stdDeviation="16" result="b" />
                <feMerge>
                  <feMergeNode in="b" />
                  <feMergeNode in="SourceGraphic" />
                </feMerge>
              </filter>
              <filter id="glr">
                <feGaussianBlur stdDeviation="10" result="b" />
                <feMerge>
                  <feMergeNode in="b" />
                  <feMergeNode in="SourceGraphic" />
                </feMerge>
              </filter>
              <filter id="gls">
                <feGaussianBlur stdDeviation="2.5" result="b" />
                <feMerge>
                  <feMergeNode in="b" />
                  <feMergeNode in="SourceGraphic" />
                </feMerge>
              </filter>
              <linearGradient id="cg" x1="0%" y1="0%" x2="0%" y2="100%">
                <stop offset="0%" stop-color="#0d1525" />
                <stop offset="100%" stop-color="#06090f" />
              </linearGradient>
              <radialGradient id="attackR" cx="50%" cy="50%" r="50%">
                <stop offset="0%" stop-color="#e05050" stop-opacity="0.15" />
                <stop offset="100%" stop-color="#05080f" stop-opacity="0" />
              </radialGradient>
              <path id="a1" d="M180,276 C280,200 400,180 520,240" />
              <path id="a2" d="M180,276 C260,260 380,270 520,258" />
              <path id="a3" d="M180,276 C270,340 400,360 520,300" />
            </defs>

            <rect width="1100" height="552" fill="#05080f" />
            <g fill="rgba(220,60,60,0.04)">
              <circle cx="92" cy="92" r="1.2" /><circle cx="184" cy="92" r="1.2" /><circle cx="276" cy="92" r="1.2" /><circle cx="368" cy="92" r="1.2" /><circle cx="460" cy="92" r="1.2" /><circle cx="552" cy="92" r="1.2" /><circle cx="644" cy="92" r="1.2" /><circle cx="736" cy="92" r="1.2" /><circle cx="828" cy="92" r="1.2" /><circle cx="920" cy="92" r="1.2" /><circle cx="1012" cy="92" r="1.2" />
              <circle cx="92" cy="184" r="1.2" /><circle cx="184" cy="184" r="1.2" /><circle cx="276" cy="184" r="1.2" /><circle cx="368" cy="184" r="1.2" /><circle cx="460" cy="184" r="1.2" /><circle cx="552" cy="184" r="1.2" /><circle cx="644" cy="184" r="1.2" /><circle cx="736" cy="184" r="1.2" /><circle cx="828" cy="184" r="1.2" /><circle cx="920" cy="184" r="1.2" /><circle cx="1012" cy="184" r="1.2" />
              <circle cx="92" cy="276" r="1.2" /><circle cx="184" cy="276" r="1.2" /><circle cx="276" cy="276" r="1.2" /><circle cx="368" cy="276" r="1.2" /><circle cx="460" cy="276" r="1.2" /><circle cx="644" cy="276" r="1.2" /><circle cx="736" cy="276" r="1.2" /><circle cx="828" cy="276" r="1.2" /><circle cx="920" cy="276" r="1.2" /><circle cx="1012" cy="276" r="1.2" />
              <circle cx="92" cy="368" r="1.2" /><circle cx="184" cy="368" r="1.2" /><circle cx="276" cy="368" r="1.2" /><circle cx="368" cy="368" r="1.2" /><circle cx="460" cy="368" r="1.2" /><circle cx="552" cy="368" r="1.2" /><circle cx="644" cy="368" r="1.2" /><circle cx="736" cy="368" r="1.2" /><circle cx="828" cy="368" r="1.2" /><circle cx="920" cy="368" r="1.2" /><circle cx="1012" cy="368" r="1.2" />
              <circle cx="92" cy="460" r="1.2" /><circle cx="184" cy="460" r="1.2" /><circle cx="276" cy="460" r="1.2" /><circle cx="368" cy="460" r="1.2" /><circle cx="460" cy="460" r="1.2" /><circle cx="552" cy="460" r="1.2" /><circle cx="644" cy="460" r="1.2" /><circle cx="736" cy="460" r="1.2" /><circle cx="828" cy="460" r="1.2" /><circle cx="920" cy="460" r="1.2" /><circle cx="1012" cy="460" r="1.2" />
            </g>

            <ellipse cx="180" cy="276" rx="200" ry="200" fill="url(#attackR)" filter="url(#glo)" />
            <ellipse cx="760" cy="276" rx="240" ry="200" fill="rgba(77,139,255,0.05)" filter="url(#glo)" />

            <circle cx="180" cy="276" r="56" fill="rgba(30,8,8,0.98)" stroke="rgba(220,60,60,0.5)" stroke-width="1.5" filter="url(#glr)" />
            <circle cx="180" cy="276" r="44" fill="rgba(50,12,12,0.4)" stroke="rgba(220,60,60,0.2)" stroke-width="1" />
            <rect x="162" y="260" width="36" height="28" rx="18" fill="none" stroke="#e05050" stroke-width="1.4" />
            <rect x="169" y="284" width="22" height="8" rx="2" fill="none" stroke="#e05050" stroke-width="1.2" />
            <line x1="176" y1="284" x2="176" y2="292" stroke="#e05050" stroke-width="1" />
            <line x1="184" y1="284" x2="184" y2="292" stroke="#e05050" stroke-width="1" />
            <circle cx="173" cy="270" r="4" fill="#e05050" opacity="0.8" />
            <circle cx="187" cy="270" r="4" fill="#e05050" opacity="0.8" />
            <text x="180" y="316" text-anchor="middle" font-family="Helvetica Neue,Helvetica,Arial,sans-serif" font-size="11" font-weight="700" fill="#e05050">ATTACKER</text>
            <text x="180" y="330" text-anchor="middle" font-family="Helvetica Neue,Helvetica,Arial,sans-serif" font-size="9" fill="#803030">Simulated Threat</text>
            <circle cx="180" cy="276" r="62" fill="none" stroke="rgba(220,60,60,0.3)" stroke-width="1">
              <animate attributeName="r" values="56;80;56" dur="2s" repeatCount="indefinite" />
              <animate attributeName="opacity" values="0.4;0;0.4" dur="2s" repeatCount="indefinite" />
            </circle>

            <path d="M180,276 C280,200 400,180 520,240" fill="none" stroke="rgba(220,60,60,0.25)" stroke-width="1.2" stroke-dasharray="6 4" />
            <path d="M180,276 C260,260 380,270 520,258" fill="none" stroke="rgba(220,60,60,0.2)" stroke-width="1" stroke-dasharray="4 5" />
            <path d="M180,276 C270,340 400,360 520,300" fill="none" stroke="rgba(220,60,60,0.2)" stroke-width="1" stroke-dasharray="5 4" />

            <rect x="318" y="198" width="64" height="18" rx="4" fill="rgba(5,8,15,0.9)" stroke="rgba(77,139,255,0.3)" stroke-width="0.8" />
            <text x="350" y="211" text-anchor="middle" font-family="Helvetica Neue,Helvetica,Arial,sans-serif" font-size="8" font-weight="700" fill="#4d8bff">BLOCKED OK</text>
            <rect x="300" y="302" width="64" height="18" rx="4" fill="rgba(5,8,15,0.9)" stroke="rgba(77,139,255,0.3)" stroke-width="0.8" />
            <text x="332" y="315" text-anchor="middle" font-family="Helvetica Neue,Helvetica,Arial,sans-serif" font-size="8" font-weight="700" fill="#4d8bff">BLOCKED OK</text>

            <circle r="5" fill="#e05050" filter="url(#gls)">
              <animateMotion dur="0.9s" repeatCount="indefinite" begin="0s"><mpath href="#a1" /></animateMotion>
              <animate attributeName="opacity" values="0;1;1;0" dur="0.9s" repeatCount="indefinite" />
            </circle>
            <circle r="4" fill="#e05050" filter="url(#gls)">
              <animateMotion dur="0.9s" repeatCount="indefinite" begin="-0.45s"><mpath href="#a1" /></animateMotion>
              <animate attributeName="opacity" values="0;1;1;0" dur="0.9s" repeatCount="indefinite" begin="-0.45s" />
            </circle>
            <circle r="4" fill="#e05050" filter="url(#gls)">
              <animateMotion dur="1.1s" repeatCount="indefinite" begin="-0.2s"><mpath href="#a2" /></animateMotion>
              <animate attributeName="opacity" values="0;1;1;0" dur="1.1s" repeatCount="indefinite" begin="-0.2s" />
            </circle>
            <circle r="4" fill="#e05050" filter="url(#gls)">
              <animateMotion dur="1s" repeatCount="indefinite" begin="-0.6s"><mpath href="#a3" /></animateMotion>
              <animate attributeName="opacity" values="0;1;1;0" dur="1s" repeatCount="indefinite" begin="-0.6s" />
            </circle>

            <circle cx="560" cy="252" r="36" fill="rgba(8,18,42,0.98)" stroke="#4d8bff" stroke-width="1.4" filter="url(#gls)" />
            <path d="M548,236 l12-5 12 5 v12 c0 8 -12 16-12 16 s-12-8-12-16z" fill="rgba(77,139,255,0.15)" stroke="#4d8bff" stroke-width="1.4" />
            <path d="M554,248 l4 4 8-8" fill="none" stroke="#4d8bff" stroke-width="1.6" stroke-linecap="round" />
            <text x="560" y="276" text-anchor="middle" font-family="Helvetica Neue,Helvetica,Arial,sans-serif" font-size="9" font-weight="700" fill="#4d8bff">VAPT</text>
            <text x="560" y="288" text-anchor="middle" font-family="Helvetica Neue,Helvetica,Arial,sans-serif" font-size="8" fill="#2a4872">ENGINE</text>

            <rect x="620" y="40" width="460" height="472" rx="12" fill="rgba(7,12,24,0.98)" stroke="rgba(77,139,255,0.12)" stroke-width="1" />
            <rect x="620" y="40" width="460" height="4" rx="2" fill="#4d8bff" />
            <text x="640" y="64" font-family="Helvetica Neue,Helvetica,Arial,sans-serif" font-size="10" font-weight="600" fill="#2a4a7a" letter-spacing="1.5">VAPT ASSESSMENT REPORT</text>

            <text x="640" y="92" font-family="Helvetica Neue,Helvetica,Arial,sans-serif" font-size="9" font-weight="600" fill="#2a4a7a" letter-spacing="1.2">OUR PROCESS</text>
            <line x1="656" y1="100" x2="656" y2="360" stroke="rgba(77,139,255,0.1)" stroke-width="1" stroke-dasharray="3 4" />

            <g font-family="Helvetica Neue,Helvetica,Arial,sans-serif">
              <circle cx="656" cy="112" r="9" fill="#4d8bff" filter="url(#gls)" />
              <text x="656" y="116" text-anchor="middle" font-size="8" font-weight="700" fill="#fff">1</text>
              <text x="674" y="108" font-size="13" font-weight="700" fill="#e9f0fa">Reconnaissance</text>
              <text x="674" y="122" font-size="10" fill="#4a6a82">OSINT · Port scan · Fingerprint OS &amp; services</text>

              <circle cx="656" cy="160" r="9" fill="#4d8bff" filter="url(#gls)" />
              <text x="656" y="164" text-anchor="middle" font-size="8" font-weight="700" fill="#fff">2</text>
              <text x="674" y="156" font-size="13" font-weight="700" fill="#e9f0fa">Vulnerability Assessment</text>
              <text x="674" y="170" font-size="10" fill="#4a6a82">10,000+ CVE scan · OWASP Top 10 · Misconfigs</text>

              <circle cx="656" cy="208" r="9" fill="#4d8bff" filter="url(#gls)" />
              <text x="656" y="212" text-anchor="middle" font-size="8" font-weight="700" fill="#fff">3</text>
              <text x="674" y="204" font-size="13" font-weight="700" fill="#e9f0fa">Penetration Testing</text>
              <text x="674" y="218" font-size="10" fill="#4a6a82">Exploit vulnerabilities · Privilege escalation · Lateral</text>

              <circle cx="656" cy="256" r="9" fill="#6a8fa8" filter="url(#gls)" />
              <text x="656" y="260" text-anchor="middle" font-size="8" font-weight="700" fill="#fff">4</text>
              <text x="674" y="252" font-size="13" font-weight="700" fill="#e9f0fa">CVSS Risk Rating</text>
              <text x="674" y="266" font-size="10" fill="#4a6a82">Critical / High / Medium / Low severity mapping</text>

              <circle cx="656" cy="304" r="9" fill="#6a8fa8" filter="url(#gls)" />
              <text x="656" y="308" text-anchor="middle" font-size="8" font-weight="700" fill="#fff">5</text>
              <text x="674" y="300" font-size="13" font-weight="700" fill="#e9f0fa">Report &amp; Remediation</text>
              <text x="674" y="314" font-size="10" fill="#4a6a82">Detailed findings · Fix guidance · Compliance evidence</text>

              <circle cx="656" cy="352" r="9" fill="#6a8fa8" filter="url(#gls)" />
              <text x="656" y="356" text-anchor="middle" font-size="8" font-weight="700" fill="#fff">6</text>
              <text x="674" y="348" font-size="13" font-weight="700" fill="#e9f0fa">Retest &amp; Certify</text>
              <text x="674" y="362" font-size="10" fill="#4a6a82">Verify patches · Issue VAPT certificate · ISO 27001</text>
            </g>

            <line x1="636" y1="378" x2="1064" y2="378" stroke="rgba(77,139,255,0.08)" stroke-width="0.8" />
            <text x="640" y="398" font-family="Helvetica Neue,Helvetica,Arial,sans-serif" font-size="9" font-weight="600" fill="#2a4a7a" letter-spacing="1">COMPLIANCE COVERAGE</text>
            <g font-family="Helvetica Neue,Helvetica,Arial,sans-serif">
              <rect x="640" y="408" width="88" height="22" rx="5" fill="rgba(77,139,255,0.08)" stroke="rgba(77,139,255,0.2)" stroke-width="0.8" />
              <text x="684" y="423" text-anchor="middle" font-size="10" font-weight="600" fill="#4d8bff">ISO 27001</text>
              <rect x="738" y="408" width="72" height="22" rx="5" fill="rgba(77,139,255,0.08)" stroke="rgba(77,139,255,0.2)" stroke-width="0.8" />
              <text x="774" y="423" text-anchor="middle" font-size="10" font-weight="600" fill="#4d8bff">PCI-DSS</text>
              <rect x="820" y="408" width="64" height="22" rx="5" fill="rgba(77,139,255,0.08)" stroke="rgba(77,139,255,0.2)" stroke-width="0.8" />
              <text x="852" y="423" text-anchor="middle" font-size="10" font-weight="600" fill="#4d8bff">GDPR</text>
              <rect x="894" y="408" width="72" height="22" rx="5" fill="rgba(77,139,255,0.08)" stroke="rgba(77,139,255,0.2)" stroke-width="0.8" />
              <text x="930" y="423" text-anchor="middle" font-size="10" font-weight="600" fill="#4d8bff">OWASP</text>
              <rect x="976" y="408" width="80" height="22" rx="5" fill="rgba(77,139,255,0.08)" stroke="rgba(77,139,255,0.2)" stroke-width="0.8" />
              <text x="1016" y="423" text-anchor="middle" font-size="10" font-weight="600" fill="#4d8bff">CERT-In</text>
            </g>

            <rect x="640" y="440" width="420" height="54" rx="8" fill="rgba(30,8,8,0.5)" stroke="rgba(220,60,60,0.2)" stroke-width="0.8" />
            <text x="660" y="460" font-family="Helvetica Neue,Helvetica,Arial,sans-serif" font-size="10" font-weight="600" fill="#e05050" letter-spacing="1">LIVE THREAT SIMULATION</text>
            <text x="660" y="480" font-family="Helvetica Neue,Helvetica,Arial,sans-serif" font-size="10" fill="#803030">Attack vectors probed · Payloads injected · Sessions hijacked · Escalation tested</text>
            <circle cx="1044" cy="463" r="6" fill="#e05050" filter="url(#gls)"><animate attributeName="opacity" values="1;0.2;1" dur="0.6s" repeatCount="indefinite" /></circle>

            <rect x="0" y="522" width="1100" height="30" fill="rgba(5,8,15,0.98)" />
            <line x1="0" y1="522" x2="1100" y2="522" stroke="rgba(220,60,60,0.15)" stroke-width="0.8" />
            <circle cx="32" cy="537" r="4" fill="#e05050" filter="url(#gls)"><animate attributeName="opacity" values="1;0.3;1" dur="0.8s" repeatCount="indefinite" /></circle>
            <text x="44" y="541" font-family="Helvetica Neue,Helvetica,Arial,sans-serif" font-size="10" font-weight="600" fill="#e05050">Pentest Active</text>
            <text x="180" y="541" font-family="Helvetica Neue,Helvetica,Arial,sans-serif" font-size="10" fill="#1e2a40">10,000+ CVE database · OWASP Top 10 · ISO 27001 compliant · CERT-In aligned · Retest included</text>
          </svg>
